<?xml version="1.0" encoding="UTF-8" standalone="no"?>
<!DOCTYPE svg PUBLIC "-//W3C//DTD SVG 1.1//EN"
 "http://www.w3.org/Graphics/SVG/1.1/DTD/svg11.dtd">
<!-- Generated by graphviz version 12.2.1 (20241206.2353)
 -->
<!-- Title: MultiChannelModel Pages: 1 -->
<svg width="322pt" height="972pt"
 viewBox="0.00 0.00 321.79 972.00" xmlns="http://www.w3.org/2000/svg" xmlns:xlink="http://www.w3.org/1999/xlink">
<g id="graph0" class="graph" transform="scale(0.757599 0.757599) rotate(0) translate(4 1279)">
<title>MultiChannelModel</title>
<polygon fill="white" stroke="none" points="-4,4 -4,-1279 420.75,-1279 420.75,4 -4,4"/>
<!-- 0 -->
<g id="node1" class="node">
<title>0</title>
<polygon fill="lightyellow" stroke="none" points="162.62,-1275 23.38,-1275 23.38,-1239.5 162.62,-1239.5 162.62,-1275"/>
<polygon fill="none" stroke="black" points="23.38,-1239.5 23.38,-1275 85.12,-1275 85.12,-1239.5 23.38,-1239.5"/>
<text text-anchor="start" x="28.38" y="-1260.5" font-family="Linux libertine" font-size="10.00">input&#45;tensor</text>
<text text-anchor="start" x="37.75" y="-1247.75" font-family="Linux libertine" font-size="10.00">depth:0</text>
<polygon fill="none" stroke="black" points="85.12,-1239.5 85.12,-1275 162.62,-1275 162.62,-1239.5 85.12,-1239.5"/>
<text text-anchor="start" x="90.12" y="-1254.12" font-family="Linux libertine" font-size="10.00">(1, 3, 256, 256)</text>
</g>
<!-- 3 -->
<g id="node4" class="node">
<title>3</title>
<polygon fill="aliceblue" stroke="none" points="176.62,-1225.5 9.38,-1225.5 9.38,-1180 176.62,-1180 176.62,-1225.5"/>
<polygon fill="none" stroke="black" points="9.38,-1180 9.38,-1225.5 52.38,-1225.5 52.38,-1180 9.38,-1180"/>
<text text-anchor="start" x="26.75" y="-1206" font-family="Linux libertine" font-size="10.00">to</text>
<text text-anchor="start" x="14.38" y="-1193.25" font-family="Linux libertine" font-size="10.00">depth:1</text>
<polygon fill="none" stroke="black" points="52.38,-1202.75 52.38,-1225.5 96.12,-1225.5 96.12,-1202.75 52.38,-1202.75"/>
<text text-anchor="start" x="61.88" y="-1211" font-family="Linux libertine" font-size="10.00">input:</text>
<polygon fill="none" stroke="black" points="96.12,-1202.75 96.12,-1225.5 176.62,-1225.5 176.62,-1202.75 96.12,-1202.75"/>
<text text-anchor="start" x="101.12" y="-1211" font-family="Linux libertine" font-size="10.00">(1, 3, 256, 256) </text>
<polygon fill="none" stroke="black" points="52.38,-1180 52.38,-1202.75 96.12,-1202.75 96.12,-1180 52.38,-1180"/>
<text text-anchor="start" x="57.38" y="-1188.25" font-family="Linux libertine" font-size="10.00">output: </text>
<polygon fill="none" stroke="black" points="96.12,-1180 96.12,-1202.75 176.62,-1202.75 176.62,-1180 96.12,-1180"/>
<text text-anchor="start" x="101.12" y="-1188.25" font-family="Linux libertine" font-size="10.00">(1, 3, 256, 256) </text>
</g>
<!-- 0&#45;&gt;3 -->
<g id="edge1" class="edge">
<title>0&#45;&gt;3</title>
<path fill="none" stroke="black" d="M93,-1239.64C93,-1238.64 93,-1237.62 93,-1236.58"/>
<polygon fill="black" stroke="black" points="96.5,-1236.77 93,-1226.77 89.5,-1236.77 96.5,-1236.77"/>
</g>
<!-- 1 -->
<g id="node2" class="node">
<title>1</title>
<polygon fill="lightyellow" stroke="none" points="298.38,-1275 169.62,-1275 169.62,-1239.5 298.38,-1239.5 298.38,-1275"/>
<polygon fill="none" stroke="black" points="169.62,-1239.5 169.62,-1275 231.38,-1275 231.38,-1239.5 169.62,-1239.5"/>
<text text-anchor="start" x="174.62" y="-1260.5" font-family="Linux libertine" font-size="10.00">input&#45;tensor</text>
<text text-anchor="start" x="184" y="-1247.75" font-family="Linux libertine" font-size="10.00">depth:0</text>
<polygon fill="none" stroke="black" points="231.38,-1239.5 231.38,-1275 298.38,-1275 298.38,-1239.5 231.38,-1239.5"/>
<text text-anchor="start" x="236.38" y="-1254.12" font-family="Linux libertine" font-size="10.00">(1, 3, 64, 64)</text>
</g>
<!-- 2 -->
<g id="node3" class="node">
<title>2</title>
<polygon fill="lightyellow" stroke="none" points="416.75,-1275 305.25,-1275 305.25,-1239.5 416.75,-1239.5 416.75,-1275"/>
<polygon fill="none" stroke="black" points="305.25,-1239.5 305.25,-1275 367,-1275 367,-1239.5 305.25,-1239.5"/>
<text text-anchor="start" x="310.25" y="-1260.5" font-family="Linux libertine" font-size="10.00">input&#45;tensor</text>
<text text-anchor="start" x="319.62" y="-1247.75" font-family="Linux libertine" font-size="10.00">depth:0</text>
<polygon fill="none" stroke="black" points="367,-1239.5 367,-1275 416.75,-1275 416.75,-1239.5 367,-1239.5"/>
<text text-anchor="start" x="372" y="-1254.12" font-family="Linux libertine" font-size="10.00">(1, 1024)</text>
</g>
<!-- 4 -->
<g id="node5" class="node">
<title>4</title>
<polygon fill="#c1ffc1" stroke="none" points="179.25,-1166 6.75,-1166 6.75,-1120.5 179.25,-1120.5 179.25,-1166"/>
<polygon fill="none" stroke="black" points="6.75,-1120.5 6.75,-1166 49.75,-1166 49.75,-1120.5 6.75,-1120.5"/>
<text text-anchor="start" x="12.12" y="-1146.5" font-family="Linux libertine" font-size="10.00">Conv2d</text>
<text text-anchor="start" x="11.75" y="-1133.75" font-family="Linux libertine" font-size="10.00">depth:2</text>
<polygon fill="none" stroke="black" points="49.75,-1143.25 49.75,-1166 93.5,-1166 93.5,-1143.25 49.75,-1143.25"/>
<text text-anchor="start" x="59.25" y="-1151.5" font-family="Linux libertine" font-size="10.00">input:</text>
<polygon fill="none" stroke="black" points="93.5,-1143.25 93.5,-1166 179.25,-1166 179.25,-1143.25 93.5,-1143.25"/>
<text text-anchor="start" x="101.12" y="-1151.5" font-family="Linux libertine" font-size="10.00">(1, 3, 256, 256) </text>
<polygon fill="none" stroke="black" points="49.75,-1120.5 49.75,-1143.25 93.5,-1143.25 93.5,-1120.5 49.75,-1120.5"/>
<text text-anchor="start" x="54.75" y="-1128.75" font-family="Linux libertine" font-size="10.00">output: </text>
<polygon fill="none" stroke="black" points="93.5,-1120.5 93.5,-1143.25 179.25,-1143.25 179.25,-1120.5 93.5,-1120.5"/>
<text text-anchor="start" x="98.5" y="-1128.75" font-family="Linux libertine" font-size="10.00">(1, 32, 256, 256) </text>
</g>
<!-- 3&#45;&gt;4 -->
<g id="edge2" class="edge">
<title>3&#45;&gt;4</title>
<path fill="none" stroke="black" d="M93,-1180.01C93,-1178.98 93,-1177.94 93,-1176.89"/>
<polygon fill="black" stroke="black" points="96.5,-1177.15 93,-1167.15 89.5,-1177.15 96.5,-1177.15"/>
</g>
<!-- 5 -->
<g id="node6" class="node">
<title>5</title>
<polygon fill="aliceblue" stroke="none" points="179.25,-1106.5 6.75,-1106.5 6.75,-1061 179.25,-1061 179.25,-1106.5"/>
<polygon fill="none" stroke="black" points="6.75,-1061 6.75,-1106.5 49.75,-1106.5 49.75,-1061 6.75,-1061"/>
<text text-anchor="start" x="20" y="-1087" font-family="Linux libertine" font-size="10.00">relu</text>
<text text-anchor="start" x="11.75" y="-1074.25" font-family="Linux libertine" font-size="10.00">depth:2</text>
<polygon fill="none" stroke="black" points="49.75,-1083.75 49.75,-1106.5 93.5,-1106.5 93.5,-1083.75 49.75,-1083.75"/>
<text text-anchor="start" x="59.25" y="-1092" font-family="Linux libertine" font-size="10.00">input:</text>
<polygon fill="none" stroke="black" points="93.5,-1083.75 93.5,-1106.5 179.25,-1106.5 179.25,-1083.75 93.5,-1083.75"/>
<text text-anchor="start" x="98.5" y="-1092" font-family="Linux libertine" font-size="10.00">(1, 32, 256, 256) </text>
<polygon fill="none" stroke="black" points="49.75,-1061 49.75,-1083.75 93.5,-1083.75 93.5,-1061 49.75,-1061"/>
<text text-anchor="start" x="54.75" y="-1069.25" font-family="Linux libertine" font-size="10.00">output: </text>
<polygon fill="none" stroke="black" points="93.5,-1061 93.5,-1083.75 179.25,-1083.75 179.25,-1061 93.5,-1061"/>
<text text-anchor="start" x="98.5" y="-1069.25" font-family="Linux libertine" font-size="10.00">(1, 32, 256, 256) </text>
</g>
<!-- 4&#45;&gt;5 -->
<g id="edge3" class="edge">
<title>4&#45;&gt;5</title>
<path fill="none" stroke="black" d="M93,-1120.51C93,-1119.48 93,-1118.44 93,-1117.39"/>
<polygon fill="black" stroke="black" points="96.5,-1117.65 93,-1107.65 89.5,-1117.65 96.5,-1117.65"/>
</g>
<!-- 6 -->
<g id="node7" class="node">
<title>6</title>
<polygon fill="#c1ffc1" stroke="none" points="186,-1047 0,-1047 0,-1001.5 186,-1001.5 186,-1047"/>
<polygon fill="none" stroke="black" points="0,-1001.5 0,-1047 56.5,-1047 56.5,-1001.5 0,-1001.5"/>
<text text-anchor="start" x="5" y="-1027.5" font-family="Linux libertine" font-size="10.00">MaxPool2d</text>
<text text-anchor="start" x="11.75" y="-1014.75" font-family="Linux libertine" font-size="10.00">depth:2</text>
<polygon fill="none" stroke="black" points="56.5,-1024.25 56.5,-1047 100.25,-1047 100.25,-1024.25 56.5,-1024.25"/>
<text text-anchor="start" x="66" y="-1032.5" font-family="Linux libertine" font-size="10.00">input:</text>
<polygon fill="none" stroke="black" points="100.25,-1024.25 100.25,-1047 186,-1047 186,-1024.25 100.25,-1024.25"/>
<text text-anchor="start" x="105.25" y="-1032.5" font-family="Linux libertine" font-size="10.00">(1, 32, 256, 256) </text>
<polygon fill="none" stroke="black" points="56.5,-1001.5 56.5,-1024.25 100.25,-1024.25 100.25,-1001.5 56.5,-1001.5"/>
<text text-anchor="start" x="61.5" y="-1009.75" font-family="Linux libertine" font-size="10.00">output: </text>
<polygon fill="none" stroke="black" points="100.25,-1001.5 100.25,-1024.25 186,-1024.25 186,-1001.5 100.25,-1001.5"/>
<text text-anchor="start" x="105.25" y="-1009.75" font-family="Linux libertine" font-size="10.00">(1, 32, 128, 128) </text>
</g>
<!-- 5&#45;&gt;6 -->
<g id="edge4" class="edge">
<title>5&#45;&gt;6</title>
<path fill="none" stroke="black" d="M93,-1061.01C93,-1059.98 93,-1058.94 93,-1057.89"/>
<polygon fill="black" stroke="black" points="96.5,-1058.15 93,-1048.15 89.5,-1058.15 96.5,-1058.15"/>
</g>
<!-- 7 -->
<g id="node8" class="node">
<title>7</title>
<polygon fill="#c1ffc1" stroke="none" points="179.25,-987.5 6.75,-987.5 6.75,-942 179.25,-942 179.25,-987.5"/>
<polygon fill="none" stroke="black" points="6.75,-942 6.75,-987.5 49.75,-987.5 49.75,-942 6.75,-942"/>
<text text-anchor="start" x="12.12" y="-968" font-family="Linux libertine" font-size="10.00">Conv2d</text>
<text text-anchor="start" x="11.75" y="-955.25" font-family="Linux libertine" font-size="10.00">depth:2</text>
<polygon fill="none" stroke="black" points="49.75,-964.75 49.75,-987.5 93.5,-987.5 93.5,-964.75 49.75,-964.75"/>
<text text-anchor="start" x="59.25" y="-973" font-family="Linux libertine" font-size="10.00">input:</text>
<polygon fill="none" stroke="black" points="93.5,-964.75 93.5,-987.5 179.25,-987.5 179.25,-964.75 93.5,-964.75"/>
<text text-anchor="start" x="98.5" y="-973" font-family="Linux libertine" font-size="10.00">(1, 32, 128, 128) </text>
<polygon fill="none" stroke="black" points="49.75,-942 49.75,-964.75 93.5,-964.75 93.5,-942 49.75,-942"/>
<text text-anchor="start" x="54.75" y="-950.25" font-family="Linux libertine" font-size="10.00">output: </text>
<polygon fill="none" stroke="black" points="93.5,-942 93.5,-964.75 179.25,-964.75 179.25,-942 93.5,-942"/>
<text text-anchor="start" x="98.5" y="-950.25" font-family="Linux libertine" font-size="10.00">(1, 64, 128, 128) </text>
</g>
<!-- 6&#45;&gt;7 -->
<g id="edge5" class="edge">
<title>6&#45;&gt;7</title>
<path fill="none" stroke="black" d="M93,-1001.51C93,-1000.48 93,-999.44 93,-998.39"/>
<polygon fill="black" stroke="black" points="96.5,-998.65 93,-988.65 89.5,-998.65 96.5,-998.65"/>
</g>
<!-- 8 -->
<g id="node9" class="node">
<title>8</title>
<polygon fill="aliceblue" stroke="none" points="179.25,-928 6.75,-928 6.75,-882.5 179.25,-882.5 179.25,-928"/>
<polygon fill="none" stroke="black" points="6.75,-882.5 6.75,-928 49.75,-928 49.75,-882.5 6.75,-882.5"/>
<text text-anchor="start" x="20" y="-908.5" font-family="Linux libertine" font-size="10.00">relu</text>
<text text-anchor="start" x="11.75" y="-895.75" font-family="Linux libertine" font-size="10.00">depth:2</text>
<polygon fill="none" stroke="black" points="49.75,-905.25 49.75,-928 93.5,-928 93.5,-905.25 49.75,-905.25"/>
<text text-anchor="start" x="59.25" y="-913.5" font-family="Linux libertine" font-size="10.00">input:</text>
<polygon fill="none" stroke="black" points="93.5,-905.25 93.5,-928 179.25,-928 179.25,-905.25 93.5,-905.25"/>
<text text-anchor="start" x="98.5" y="-913.5" font-family="Linux libertine" font-size="10.00">(1, 64, 128, 128) </text>
<polygon fill="none" stroke="black" points="49.75,-882.5 49.75,-905.25 93.5,-905.25 93.5,-882.5 49.75,-882.5"/>
<text text-anchor="start" x="54.75" y="-890.75" font-family="Linux libertine" font-size="10.00">output: </text>
<polygon fill="none" stroke="black" points="93.5,-882.5 93.5,-905.25 179.25,-905.25 179.25,-882.5 93.5,-882.5"/>
<text text-anchor="start" x="98.5" y="-890.75" font-family="Linux libertine" font-size="10.00">(1, 64, 128, 128) </text>
</g>
<!-- 7&#45;&gt;8 -->
<g id="edge6" class="edge">
<title>7&#45;&gt;8</title>
<path fill="none" stroke="black" d="M93,-942.01C93,-940.98 93,-939.94 93,-938.89"/>
<polygon fill="black" stroke="black" points="96.5,-939.15 93,-929.15 89.5,-939.15 96.5,-939.15"/>
</g>
<!-- 9 -->
<g id="node10" class="node">
<title>9</title>
<polygon fill="#c1ffc1" stroke="none" points="186,-868.5 0,-868.5 0,-823 186,-823 186,-868.5"/>
<polygon fill="none" stroke="black" points="0,-823 0,-868.5 56.5,-868.5 56.5,-823 0,-823"/>
<text text-anchor="start" x="5" y="-849" font-family="Linux libertine" font-size="10.00">MaxPool2d</text>
<text text-anchor="start" x="11.75" y="-836.25" font-family="Linux libertine" font-size="10.00">depth:2</text>
<polygon fill="none" stroke="black" points="56.5,-845.75 56.5,-868.5 100.25,-868.5 100.25,-845.75 56.5,-845.75"/>
<text text-anchor="start" x="66" y="-854" font-family="Linux libertine" font-size="10.00">input:</text>
<polygon fill="none" stroke="black" points="100.25,-845.75 100.25,-868.5 186,-868.5 186,-845.75 100.25,-845.75"/>
<text text-anchor="start" x="105.25" y="-854" font-family="Linux libertine" font-size="10.00">(1, 64, 128, 128) </text>
<polygon fill="none" stroke="black" points="56.5,-823 56.5,-845.75 100.25,-845.75 100.25,-823 56.5,-823"/>
<text text-anchor="start" x="61.5" y="-831.25" font-family="Linux libertine" font-size="10.00">output: </text>
<polygon fill="none" stroke="black" points="100.25,-823 100.25,-845.75 186,-845.75 186,-823 100.25,-823"/>
<text text-anchor="start" x="110.5" y="-831.25" font-family="Linux libertine" font-size="10.00">(1, 64, 64, 64) </text>
</g>
<!-- 8&#45;&gt;9 -->
<g id="edge7" class="edge">
<title>8&#45;&gt;9</title>
<path fill="none" stroke="black" d="M93,-882.51C93,-881.48 93,-880.44 93,-879.39"/>
<polygon fill="black" stroke="black" points="96.5,-879.65 93,-869.65 89.5,-879.65 96.5,-879.65"/>
</g>
<!-- 10 -->
<g id="node11" class="node">
<title>10</title>
<polygon fill="#c1ffc1" stroke="none" points="176.62,-809 9.38,-809 9.38,-763.5 176.62,-763.5 176.62,-809"/>
<polygon fill="none" stroke="black" points="9.38,-763.5 9.38,-809 52.38,-809 52.38,-763.5 9.38,-763.5"/>
<text text-anchor="start" x="14.75" y="-789.5" font-family="Linux libertine" font-size="10.00">Conv2d</text>
<text text-anchor="start" x="14.38" y="-776.75" font-family="Linux libertine" font-size="10.00">depth:2</text>
<polygon fill="none" stroke="black" points="52.38,-786.25 52.38,-809 96.12,-809 96.12,-786.25 52.38,-786.25"/>
<text text-anchor="start" x="61.88" y="-794.5" font-family="Linux libertine" font-size="10.00">input:</text>
<polygon fill="none" stroke="black" points="96.12,-786.25 96.12,-809 176.62,-809 176.62,-786.25 96.12,-786.25"/>
<text text-anchor="start" x="103.75" y="-794.5" font-family="Linux libertine" font-size="10.00">(1, 64, 64, 64) </text>
<polygon fill="none" stroke="black" points="52.38,-763.5 52.38,-786.25 96.12,-786.25 96.12,-763.5 52.38,-763.5"/>
<text text-anchor="start" x="57.38" y="-771.75" font-family="Linux libertine" font-size="10.00">output: </text>
<polygon fill="none" stroke="black" points="96.12,-763.5 96.12,-786.25 176.62,-786.25 176.62,-763.5 96.12,-763.5"/>
<text text-anchor="start" x="101.12" y="-771.75" font-family="Linux libertine" font-size="10.00">(1, 128, 64, 64) </text>
</g>
<!-- 9&#45;&gt;10 -->
<g id="edge8" class="edge">
<title>9&#45;&gt;10</title>
<path fill="none" stroke="black" d="M93,-823.01C93,-821.98 93,-820.94 93,-819.89"/>
<polygon fill="black" stroke="black" points="96.5,-820.15 93,-810.15 89.5,-820.15 96.5,-820.15"/>
</g>
<!-- 11 -->
<g id="node12" class="node">
<title>11</title>
<polygon fill="aliceblue" stroke="none" points="176.62,-749.5 9.38,-749.5 9.38,-704 176.62,-704 176.62,-749.5"/>
<polygon fill="none" stroke="black" points="9.38,-704 9.38,-749.5 52.38,-749.5 52.38,-704 9.38,-704"/>
<text text-anchor="start" x="22.62" y="-730" font-family="Linux libertine" font-size="10.00">relu</text>
<text text-anchor="start" x="14.38" y="-717.25" font-family="Linux libertine" font-size="10.00">depth:2</text>
<polygon fill="none" stroke="black" points="52.38,-726.75 52.38,-749.5 96.12,-749.5 96.12,-726.75 52.38,-726.75"/>
<text text-anchor="start" x="61.88" y="-735" font-family="Linux libertine" font-size="10.00">input:</text>
<polygon fill="none" stroke="black" points="96.12,-726.75 96.12,-749.5 176.62,-749.5 176.62,-726.75 96.12,-726.75"/>
<text text-anchor="start" x="101.12" y="-735" font-family="Linux libertine" font-size="10.00">(1, 128, 64, 64) </text>
<polygon fill="none" stroke="black" points="52.38,-704 52.38,-726.75 96.12,-726.75 96.12,-704 52.38,-704"/>
<text text-anchor="start" x="57.38" y="-712.25" font-family="Linux libertine" font-size="10.00">output: </text>
<polygon fill="none" stroke="black" points="96.12,-704 96.12,-726.75 176.62,-726.75 176.62,-704 96.12,-704"/>
<text text-anchor="start" x="101.12" y="-712.25" font-family="Linux libertine" font-size="10.00">(1, 128, 64, 64) </text>
</g>
<!-- 10&#45;&gt;11 -->
<g id="edge9" class="edge">
<title>10&#45;&gt;11</title>
<path fill="none" stroke="black" d="M93,-763.51C93,-762.48 93,-761.44 93,-760.39"/>
<polygon fill="black" stroke="black" points="96.5,-760.65 93,-750.65 89.5,-760.65 96.5,-760.65"/>
</g>
<!-- 12 -->
<g id="node13" class="node">
<title>12</title>
<polygon fill="#c1ffc1" stroke="none" points="183.38,-690 2.62,-690 2.62,-644.5 183.38,-644.5 183.38,-690"/>
<polygon fill="none" stroke="black" points="2.62,-644.5 2.62,-690 59.12,-690 59.12,-644.5 2.62,-644.5"/>
<text text-anchor="start" x="7.62" y="-670.5" font-family="Linux libertine" font-size="10.00">MaxPool2d</text>
<text text-anchor="start" x="14.38" y="-657.75" font-family="Linux libertine" font-size="10.00">depth:2</text>
<polygon fill="none" stroke="black" points="59.12,-667.25 59.12,-690 102.88,-690 102.88,-667.25 59.12,-667.25"/>
<text text-anchor="start" x="68.62" y="-675.5" font-family="Linux libertine" font-size="10.00">input:</text>
<polygon fill="none" stroke="black" points="102.88,-667.25 102.88,-690 183.38,-690 183.38,-667.25 102.88,-667.25"/>
<text text-anchor="start" x="107.88" y="-675.5" font-family="Linux libertine" font-size="10.00">(1, 128, 64, 64) </text>
<polygon fill="none" stroke="black" points="59.12,-644.5 59.12,-667.25 102.88,-667.25 102.88,-644.5 59.12,-644.5"/>
<text text-anchor="start" x="64.12" y="-652.75" font-family="Linux libertine" font-size="10.00">output: </text>
<polygon fill="none" stroke="black" points="102.88,-644.5 102.88,-667.25 183.38,-667.25 183.38,-644.5 102.88,-644.5"/>
<text text-anchor="start" x="107.88" y="-652.75" font-family="Linux libertine" font-size="10.00">(1, 128, 32, 32) </text>
</g>
<!-- 11&#45;&gt;12 -->
<g id="edge10" class="edge">
<title>11&#45;&gt;12</title>
<path fill="none" stroke="black" d="M93,-704.01C93,-702.98 93,-701.94 93,-700.89"/>
<polygon fill="black" stroke="black" points="96.5,-701.15 93,-691.15 89.5,-701.15 96.5,-701.15"/>
</g>
<!-- 13 -->
<g id="node14" class="node">
<title>13</title>
<polygon fill="aliceblue" stroke="none" points="176.62,-630.5 9.38,-630.5 9.38,-585 176.62,-585 176.62,-630.5"/>
<polygon fill="none" stroke="black" points="9.38,-585 9.38,-630.5 52.38,-630.5 52.38,-585 9.38,-585"/>
<text text-anchor="start" x="20.75" y="-611" font-family="Linux libertine" font-size="10.00">view</text>
<text text-anchor="start" x="14.38" y="-598.25" font-family="Linux libertine" font-size="10.00">depth:2</text>
<polygon fill="none" stroke="black" points="52.38,-607.75 52.38,-630.5 96.12,-630.5 96.12,-607.75 52.38,-607.75"/>
<text text-anchor="start" x="61.88" y="-616" font-family="Linux libertine" font-size="10.00">input:</text>
<polygon fill="none" stroke="black" points="96.12,-607.75 96.12,-630.5 176.62,-630.5 176.62,-607.75 96.12,-607.75"/>
<text text-anchor="start" x="101.12" y="-616" font-family="Linux libertine" font-size="10.00">(1, 128, 32, 32) </text>
<polygon fill="none" stroke="black" points="52.38,-585 52.38,-607.75 96.12,-607.75 96.12,-585 52.38,-585"/>
<text text-anchor="start" x="57.38" y="-593.25" font-family="Linux libertine" font-size="10.00">output: </text>
<polygon fill="none" stroke="black" points="96.12,-585 96.12,-607.75 176.62,-607.75 176.62,-585 96.12,-585"/>
<text text-anchor="start" x="109.75" y="-593.25" font-family="Linux libertine" font-size="10.00">(1, 131072) </text>
</g>
<!-- 12&#45;&gt;13 -->
<g id="edge11" class="edge">
<title>12&#45;&gt;13</title>
<path fill="none" stroke="black" d="M93,-644.51C93,-643.48 93,-642.44 93,-641.39"/>
<polygon fill="black" stroke="black" points="96.5,-641.65 93,-631.65 89.5,-641.65 96.5,-641.65"/>
</g>
<!-- 14 -->
<g id="node15" class="node">
<title>14</title>
<polygon fill="#c1ffc1" stroke="none" points="168,-571 18,-571 18,-525.5 168,-525.5 168,-571"/>
<polygon fill="none" stroke="black" points="18,-525.5 18,-571 61,-571 61,-525.5 18,-525.5"/>
<text text-anchor="start" x="26" y="-551.5" font-family="Linux libertine" font-size="10.00">Linear</text>
<text text-anchor="start" x="23" y="-538.75" font-family="Linux libertine" font-size="10.00">depth:2</text>
<polygon fill="none" stroke="black" points="61,-548.25 61,-571 104.75,-571 104.75,-548.25 61,-548.25"/>
<text text-anchor="start" x="70.5" y="-556.5" font-family="Linux libertine" font-size="10.00">input:</text>
<polygon fill="none" stroke="black" points="104.75,-548.25 104.75,-571 168,-571 168,-548.25 104.75,-548.25"/>
<text text-anchor="start" x="109.75" y="-556.5" font-family="Linux libertine" font-size="10.00">(1, 131072) </text>
<polygon fill="none" stroke="black" points="61,-525.5 61,-548.25 104.75,-548.25 104.75,-525.5 61,-525.5"/>
<text text-anchor="start" x="66" y="-533.75" font-family="Linux libertine" font-size="10.00">output: </text>
<polygon fill="none" stroke="black" points="104.75,-525.5 104.75,-548.25 168,-548.25 168,-525.5 104.75,-525.5"/>
<text text-anchor="start" x="117.62" y="-533.75" font-family="Linux libertine" font-size="10.00">(1, 512) </text>
</g>
<!-- 13&#45;&gt;14 -->
<g id="edge12" class="edge">
<title>13&#45;&gt;14</title>
<path fill="none" stroke="black" d="M93,-585.01C93,-583.98 93,-582.94 93,-581.89"/>
<polygon fill="black" stroke="black" points="96.5,-582.15 93,-572.15 89.5,-582.15 96.5,-582.15"/>
</g>
<!-- 15 -->
<g id="node16" class="node">
<title>15</title>
<polygon fill="aliceblue" stroke="none" points="160.12,-511.5 25.88,-511.5 25.88,-466 160.12,-466 160.12,-511.5"/>
<polygon fill="none" stroke="black" points="25.88,-466 25.88,-511.5 68.88,-511.5 68.88,-466 25.88,-466"/>
<text text-anchor="start" x="39.12" y="-492" font-family="Linux libertine" font-size="10.00">relu</text>
<text text-anchor="start" x="30.88" y="-479.25" font-family="Linux libertine" font-size="10.00">depth:2</text>
<polygon fill="none" stroke="black" points="68.88,-488.75 68.88,-511.5 112.62,-511.5 112.62,-488.75 68.88,-488.75"/>
<text text-anchor="start" x="78.38" y="-497" font-family="Linux libertine" font-size="10.00">input:</text>
<polygon fill="none" stroke="black" points="112.62,-488.75 112.62,-511.5 160.12,-511.5 160.12,-488.75 112.62,-488.75"/>
<text text-anchor="start" x="117.62" y="-497" font-family="Linux libertine" font-size="10.00">(1, 512) </text>
<polygon fill="none" stroke="black" points="68.88,-466 68.88,-488.75 112.62,-488.75 112.62,-466 68.88,-466"/>
<text text-anchor="start" x="73.88" y="-474.25" font-family="Linux libertine" font-size="10.00">output: </text>
<polygon fill="none" stroke="black" points="112.62,-466 112.62,-488.75 160.12,-488.75 160.12,-466 112.62,-466"/>
<text text-anchor="start" x="117.62" y="-474.25" font-family="Linux libertine" font-size="10.00">(1, 512) </text>
</g>
<!-- 14&#45;&gt;15 -->
<g id="edge13" class="edge">
<title>14&#45;&gt;15</title>
<path fill="none" stroke="black" d="M93,-525.51C93,-524.48 93,-523.44 93,-522.39"/>
<polygon fill="black" stroke="black" points="96.5,-522.65 93,-512.65 89.5,-522.65 96.5,-522.65"/>
</g>
<!-- 16 -->
<g id="node17" class="node">
<title>16</title>
<polygon fill="#c1ffc1" stroke="none" points="160.88,-452 25.12,-452 25.12,-406.5 160.88,-406.5 160.88,-452"/>
<polygon fill="none" stroke="black" points="25.12,-406.5 25.12,-452 69.62,-452 69.62,-406.5 25.12,-406.5"/>
<text text-anchor="start" x="30.12" y="-432.5" font-family="Linux libertine" font-size="10.00">Dropout</text>
<text text-anchor="start" x="30.88" y="-419.75" font-family="Linux libertine" font-size="10.00">depth:2</text>
<polygon fill="none" stroke="black" points="69.62,-429.25 69.62,-452 113.38,-452 113.38,-429.25 69.62,-429.25"/>
<text text-anchor="start" x="79.12" y="-437.5" font-family="Linux libertine" font-size="10.00">input:</text>
<polygon fill="none" stroke="black" points="113.38,-429.25 113.38,-452 160.88,-452 160.88,-429.25 113.38,-429.25"/>
<text text-anchor="start" x="118.38" y="-437.5" font-family="Linux libertine" font-size="10.00">(1, 512) </text>
<polygon fill="none" stroke="black" points="69.62,-406.5 69.62,-429.25 113.38,-429.25 113.38,-406.5 69.62,-406.5"/>
<text text-anchor="start" x="74.62" y="-414.75" font-family="Linux libertine" font-size="10.00">output: </text>
<polygon fill="none" stroke="black" points="113.38,-406.5 113.38,-429.25 160.88,-429.25 160.88,-406.5 113.38,-406.5"/>
<text text-anchor="start" x="118.38" y="-414.75" font-family="Linux libertine" font-size="10.00">(1, 512) </text>
</g>
<!-- 15&#45;&gt;16 -->
<g id="edge14" class="edge">
<title>15&#45;&gt;16</title>
<path fill="none" stroke="black" d="M93,-466.01C93,-464.98 93,-463.94 93,-462.89"/>
<polygon fill="black" stroke="black" points="96.5,-463.15 93,-453.15 89.5,-463.15 96.5,-463.15"/>
</g>
<!-- 17 -->
<g id="node18" class="node">
<title>17</title>
<polygon fill="#c1ffc1" stroke="none" points="160.12,-392.5 25.88,-392.5 25.88,-347 160.12,-347 160.12,-392.5"/>
<polygon fill="none" stroke="black" points="25.88,-347 25.88,-392.5 68.88,-392.5 68.88,-347 25.88,-347"/>
<text text-anchor="start" x="33.88" y="-373" font-family="Linux libertine" font-size="10.00">Linear</text>
<text text-anchor="start" x="30.88" y="-360.25" font-family="Linux libertine" font-size="10.00">depth:2</text>
<polygon fill="none" stroke="black" points="68.88,-369.75 68.88,-392.5 112.62,-392.5 112.62,-369.75 68.88,-369.75"/>
<text text-anchor="start" x="78.38" y="-378" font-family="Linux libertine" font-size="10.00">input:</text>
<polygon fill="none" stroke="black" points="112.62,-369.75 112.62,-392.5 160.12,-392.5 160.12,-369.75 112.62,-369.75"/>
<text text-anchor="start" x="117.62" y="-378" font-family="Linux libertine" font-size="10.00">(1, 512) </text>
<polygon fill="none" stroke="black" points="68.88,-347 68.88,-369.75 112.62,-369.75 112.62,-347 68.88,-347"/>
<text text-anchor="start" x="73.88" y="-355.25" font-family="Linux libertine" font-size="10.00">output: </text>
<polygon fill="none" stroke="black" points="112.62,-347 112.62,-369.75 160.12,-369.75 160.12,-347 112.62,-347"/>
<text text-anchor="start" x="117.62" y="-355.25" font-family="Linux libertine" font-size="10.00">(1, 128) </text>
</g>
<!-- 16&#45;&gt;17 -->
<g id="edge15" class="edge">
<title>16&#45;&gt;17</title>
<path fill="none" stroke="black" d="M93,-406.51C93,-405.48 93,-404.44 93,-403.39"/>
<polygon fill="black" stroke="black" points="96.5,-403.65 93,-393.65 89.5,-403.65 96.5,-403.65"/>
</g>
<!-- 18 -->
<g id="node19" class="node">
<title>18</title>
<polygon fill="aliceblue" stroke="none" points="160.12,-333 25.88,-333 25.88,-287.5 160.12,-287.5 160.12,-333"/>
<polygon fill="none" stroke="black" points="25.88,-287.5 25.88,-333 68.88,-333 68.88,-287.5 25.88,-287.5"/>
<text text-anchor="start" x="39.12" y="-313.5" font-family="Linux libertine" font-size="10.00">relu</text>
<text text-anchor="start" x="30.88" y="-300.75" font-family="Linux libertine" font-size="10.00">depth:2</text>
<polygon fill="none" stroke="black" points="68.88,-310.25 68.88,-333 112.62,-333 112.62,-310.25 68.88,-310.25"/>
<text text-anchor="start" x="78.38" y="-318.5" font-family="Linux libertine" font-size="10.00">input:</text>
<polygon fill="none" stroke="black" points="112.62,-310.25 112.62,-333 160.12,-333 160.12,-310.25 112.62,-310.25"/>
<text text-anchor="start" x="117.62" y="-318.5" font-family="Linux libertine" font-size="10.00">(1, 128) </text>
<polygon fill="none" stroke="black" points="68.88,-287.5 68.88,-310.25 112.62,-310.25 112.62,-287.5 68.88,-287.5"/>
<text text-anchor="start" x="73.88" y="-295.75" font-family="Linux libertine" font-size="10.00">output: </text>
<polygon fill="none" stroke="black" points="112.62,-287.5 112.62,-310.25 160.12,-310.25 160.12,-287.5 112.62,-287.5"/>
<text text-anchor="start" x="117.62" y="-295.75" font-family="Linux libertine" font-size="10.00">(1, 128) </text>
</g>
<!-- 17&#45;&gt;18 -->
<g id="edge16" class="edge">
<title>17&#45;&gt;18</title>
<path fill="none" stroke="black" d="M93,-347.01C93,-345.98 93,-344.94 93,-343.89"/>
<polygon fill="black" stroke="black" points="96.5,-344.15 93,-334.15 89.5,-344.15 96.5,-344.15"/>
</g>
<!-- 19 -->
<g id="node20" class="node">
<title>19</title>
<polygon fill="#c1ffc1" stroke="none" points="160.88,-273.5 25.12,-273.5 25.12,-228 160.88,-228 160.88,-273.5"/>
<polygon fill="none" stroke="black" points="25.12,-228 25.12,-273.5 69.62,-273.5 69.62,-228 25.12,-228"/>
<text text-anchor="start" x="30.12" y="-254" font-family="Linux libertine" font-size="10.00">Dropout</text>
<text text-anchor="start" x="30.88" y="-241.25" font-family="Linux libertine" font-size="10.00">depth:2</text>
<polygon fill="none" stroke="black" points="69.62,-250.75 69.62,-273.5 113.38,-273.5 113.38,-250.75 69.62,-250.75"/>
<text text-anchor="start" x="79.12" y="-259" font-family="Linux libertine" font-size="10.00">input:</text>
<polygon fill="none" stroke="black" points="113.38,-250.75 113.38,-273.5 160.88,-273.5 160.88,-250.75 113.38,-250.75"/>
<text text-anchor="start" x="118.38" y="-259" font-family="Linux libertine" font-size="10.00">(1, 128) </text>
<polygon fill="none" stroke="black" points="69.62,-228 69.62,-250.75 113.38,-250.75 113.38,-228 69.62,-228"/>
<text text-anchor="start" x="74.62" y="-236.25" font-family="Linux libertine" font-size="10.00">output: </text>
<polygon fill="none" stroke="black" points="113.38,-228 113.38,-250.75 160.88,-250.75 160.88,-228 113.38,-228"/>
<text text-anchor="start" x="118.38" y="-236.25" font-family="Linux libertine" font-size="10.00">(1, 128) </text>
</g>
<!-- 18&#45;&gt;19 -->
<g id="edge17" class="edge">
<title>18&#45;&gt;19</title>
<path fill="none" stroke="black" d="M93,-287.51C93,-286.48 93,-285.44 93,-284.39"/>
<polygon fill="black" stroke="black" points="96.5,-284.65 93,-274.65 89.5,-284.65 96.5,-284.65"/>
</g>
<!-- 20 -->
<g id="node21" class="node">
<title>20</title>
<polygon fill="#c1ffc1" stroke="none" points="160.12,-214 25.88,-214 25.88,-168.5 160.12,-168.5 160.12,-214"/>
<polygon fill="none" stroke="black" points="25.88,-168.5 25.88,-214 68.88,-214 68.88,-168.5 25.88,-168.5"/>
<text text-anchor="start" x="33.88" y="-194.5" font-family="Linux libertine" font-size="10.00">Linear</text>
<text text-anchor="start" x="30.88" y="-181.75" font-family="Linux libertine" font-size="10.00">depth:2</text>
<polygon fill="none" stroke="black" points="68.88,-191.25 68.88,-214 112.62,-214 112.62,-191.25 68.88,-191.25"/>
<text text-anchor="start" x="78.38" y="-199.5" font-family="Linux libertine" font-size="10.00">input:</text>
<polygon fill="none" stroke="black" points="112.62,-191.25 112.62,-214 160.12,-214 160.12,-191.25 112.62,-191.25"/>
<text text-anchor="start" x="117.62" y="-199.5" font-family="Linux libertine" font-size="10.00">(1, 128) </text>
<polygon fill="none" stroke="black" points="68.88,-168.5 68.88,-191.25 112.62,-191.25 112.62,-168.5 68.88,-168.5"/>
<text text-anchor="start" x="73.88" y="-176.75" font-family="Linux libertine" font-size="10.00">output: </text>
<polygon fill="none" stroke="black" points="112.62,-168.5 112.62,-191.25 160.12,-191.25 160.12,-168.5 112.62,-168.5"/>
<text text-anchor="start" x="120.25" y="-176.75" font-family="Linux libertine" font-size="10.00">(1, 64) </text>
</g>
<!-- 19&#45;&gt;20 -->
<g id="edge18" class="edge">
<title>19&#45;&gt;20</title>
<path fill="none" stroke="black" d="M93,-228.01C93,-226.98 93,-225.94 93,-224.89"/>
<polygon fill="black" stroke="black" points="96.5,-225.15 93,-215.15 89.5,-225.15 96.5,-225.15"/>
</g>
<!-- 21 -->
<g id="node22" class="node">
<title>21</title>
<polygon fill="#c1ffc1" stroke="none" points="157.5,-154.5 28.5,-154.5 28.5,-109 157.5,-109 157.5,-154.5"/>
<polygon fill="none" stroke="black" points="28.5,-109 28.5,-154.5 71.5,-154.5 71.5,-109 28.5,-109"/>
<text text-anchor="start" x="36.5" y="-135" font-family="Linux libertine" font-size="10.00">Linear</text>
<text text-anchor="start" x="33.5" y="-122.25" font-family="Linux libertine" font-size="10.00">depth:1</text>
<polygon fill="none" stroke="black" points="71.5,-131.75 71.5,-154.5 115.25,-154.5 115.25,-131.75 71.5,-131.75"/>
<text text-anchor="start" x="81" y="-140" font-family="Linux libertine" font-size="10.00">input:</text>
<polygon fill="none" stroke="black" points="115.25,-131.75 115.25,-154.5 157.5,-154.5 157.5,-131.75 115.25,-131.75"/>
<text text-anchor="start" x="120.25" y="-140" font-family="Linux libertine" font-size="10.00">(1, 64) </text>
<polygon fill="none" stroke="black" points="71.5,-109 71.5,-131.75 115.25,-131.75 115.25,-109 71.5,-109"/>
<text text-anchor="start" x="76.5" y="-117.25" font-family="Linux libertine" font-size="10.00">output: </text>
<polygon fill="none" stroke="black" points="115.25,-109 115.25,-131.75 157.5,-131.75 157.5,-109 115.25,-109"/>
<text text-anchor="start" x="122.88" y="-117.25" font-family="Linux libertine" font-size="10.00">(1, 1) </text>
</g>
<!-- 20&#45;&gt;21 -->
<g id="edge19" class="edge">
<title>20&#45;&gt;21</title>
<path fill="none" stroke="black" d="M93,-168.51C93,-167.48 93,-166.44 93,-165.39"/>
<polygon fill="black" stroke="black" points="96.5,-165.65 93,-155.65 89.5,-165.65 96.5,-165.65"/>
</g>
<!-- 22 -->
<g id="node23" class="node">
<title>22</title>
<polygon fill="#c1ffc1" stroke="none" points="155.25,-95 30.75,-95 30.75,-49.5 155.25,-49.5 155.25,-95"/>
<polygon fill="none" stroke="black" points="30.75,-49.5 30.75,-95 74.5,-95 74.5,-49.5 30.75,-49.5"/>
<text text-anchor="start" x="35.75" y="-75.5" font-family="Linux libertine" font-size="10.00">Sigmoid</text>
<text text-anchor="start" x="36.12" y="-62.75" font-family="Linux libertine" font-size="10.00">depth:1</text>
<polygon fill="none" stroke="black" points="74.5,-72.25 74.5,-95 118.25,-95 118.25,-72.25 74.5,-72.25"/>
<text text-anchor="start" x="84" y="-80.5" font-family="Linux libertine" font-size="10.00">input:</text>
<polygon fill="none" stroke="black" points="118.25,-72.25 118.25,-95 155.25,-95 155.25,-72.25 118.25,-72.25"/>
<text text-anchor="start" x="123.25" y="-80.5" font-family="Linux libertine" font-size="10.00">(1, 1) </text>
<polygon fill="none" stroke="black" points="74.5,-49.5 74.5,-72.25 118.25,-72.25 118.25,-49.5 74.5,-49.5"/>
<text text-anchor="start" x="79.5" y="-57.75" font-family="Linux libertine" font-size="10.00">output: </text>
<polygon fill="none" stroke="black" points="118.25,-49.5 118.25,-72.25 155.25,-72.25 155.25,-49.5 118.25,-49.5"/>
<text text-anchor="start" x="123.25" y="-57.75" font-family="Linux libertine" font-size="10.00">(1, 1) </text>
</g>
<!-- 21&#45;&gt;22 -->
<g id="edge20" class="edge">
<title>21&#45;&gt;22</title>
<path fill="none" stroke="black" d="M93,-109.01C93,-107.98 93,-106.94 93,-105.89"/>
<polygon fill="black" stroke="black" points="96.5,-106.15 93,-96.15 89.5,-106.15 96.5,-106.15"/>
</g>
<!-- 23 -->
<g id="node24" class="node">
<title>23</title>
<polygon fill="lightyellow" stroke="none" points="143.88,-35.5 42.13,-35.5 42.13,0 143.88,0 143.88,-35.5"/>
<polygon fill="none" stroke="black" points="42.12,0 42.12,-35.5 109.88,-35.5 109.88,0 42.12,0"/>
<text text-anchor="start" x="47.12" y="-21" font-family="Linux libertine" font-size="10.00">output&#45;tensor</text>
<text text-anchor="start" x="59.5" y="-8.25" font-family="Linux libertine" font-size="10.00">depth:0</text>
<polygon fill="none" stroke="black" points="109.88,0 109.88,-35.5 143.88,-35.5 143.88,0 109.88,0"/>
<text text-anchor="start" x="114.88" y="-14.62" font-family="Linux libertine" font-size="10.00">(1, 1)</text>
</g>
<!-- 22&#45;&gt;23 -->
<g id="edge21" class="edge">
<title>22&#45;&gt;23</title>
<path fill="none" stroke="black" d="M93,-49.59C93,-48.56 93,-47.51 93,-46.46"/>
<polygon fill="black" stroke="black" points="96.5,-46.9 93,-36.9 89.5,-46.9 96.5,-46.9"/>
</g>
</g>
</svg>
