<?xml version="1.0" encoding="UTF-8" standalone="no"?>
<!DOCTYPE svg PUBLIC "-//W3C//DTD SVG 1.1//EN"
 "http://www.w3.org/Graphics/SVG/1.1/DTD/svg11.dtd">
<!-- Generated by graphviz version 12.2.1 (20241206.2353)
 -->
<!-- Title: MultiChannelModel Pages: 1 -->
<svg width="504pt" height="748pt"
 viewBox="0.00 0.00 503.62 747.50" xmlns="http://www.w3.org/2000/svg" xmlns:xlink="http://www.w3.org/1999/xlink">
<g id="graph0" class="graph" transform="scale(1 1) rotate(0) translate(4 743.5)">
<title>MultiChannelModel</title>
<polygon fill="white" stroke="none" points="-4,4 -4,-743.5 499.62,-743.5 499.62,4 -4,4"/>
<!-- 0 -->
<g id="node1" class="node">
<title>0</title>
<polygon fill="lightyellow" stroke="none" points="139.25,-739.5 0,-739.5 0,-704 139.25,-704 139.25,-739.5"/>
<polygon fill="none" stroke="black" points="0,-704 0,-739.5 61.75,-739.5 61.75,-704 0,-704"/>
<text text-anchor="start" x="5" y="-725" font-family="Linux libertine" font-size="10.00">input&#45;tensor</text>
<text text-anchor="start" x="14.38" y="-712.25" font-family="Linux libertine" font-size="10.00">depth:0</text>
<polygon fill="none" stroke="black" points="61.75,-704 61.75,-739.5 139.25,-739.5 139.25,-704 61.75,-704"/>
<text text-anchor="start" x="66.75" y="-718.62" font-family="Linux libertine" font-size="10.00">(1, 3, 256, 256)</text>
</g>
<!-- 1 -->
<g id="node2" class="node">
<title>1</title>
<polygon fill="lightyellow" stroke="none" points="291.25,-739.5 146,-739.5 146,-704 291.25,-704 291.25,-739.5"/>
<polygon fill="none" stroke="black" points="146,-704 146,-739.5 207.75,-739.5 207.75,-704 146,-704"/>
<text text-anchor="start" x="151" y="-725" font-family="Linux libertine" font-size="10.00">input&#45;tensor</text>
<text text-anchor="start" x="160.38" y="-712.25" font-family="Linux libertine" font-size="10.00">depth:0</text>
<polygon fill="none" stroke="black" points="207.75,-704 207.75,-739.5 291.25,-739.5 291.25,-704 207.75,-704"/>
<text text-anchor="start" x="212.75" y="-718.62" font-family="Linux libertine" font-size="10.00">(1, 50, 3, 64, 64)</text>
</g>
<!-- 2 -->
<g id="node3" class="node">
<title>2</title>
<polygon fill="lightyellow" stroke="none" points="394.5,-739.5 298.75,-739.5 298.75,-704 394.5,-704 394.5,-739.5"/>
<polygon fill="none" stroke="black" points="298.75,-704 298.75,-739.5 360.5,-739.5 360.5,-704 298.75,-704"/>
<text text-anchor="start" x="303.75" y="-725" font-family="Linux libertine" font-size="10.00">input&#45;tensor</text>
<text text-anchor="start" x="313.12" y="-712.25" font-family="Linux libertine" font-size="10.00">depth:0</text>
<polygon fill="none" stroke="black" points="360.5,-704 360.5,-739.5 394.5,-739.5 394.5,-704 360.5,-704"/>
<text text-anchor="start" x="365.5" y="-718.62" font-family="Linux libertine" font-size="10.00">(1, 7)</text>
</g>
<!-- 3 -->
<g id="node4" class="node">
<title>3</title>
<polygon fill="aliceblue" stroke="none" points="408.5,-690 284.75,-690 284.75,-644.5 408.5,-644.5 408.5,-690"/>
<polygon fill="none" stroke="black" points="284.75,-644.5 284.75,-690 327.75,-690 327.75,-644.5 284.75,-644.5"/>
<text text-anchor="start" x="302.12" y="-670.5" font-family="Linux libertine" font-size="10.00">to</text>
<text text-anchor="start" x="289.75" y="-657.75" font-family="Linux libertine" font-size="10.00">depth:1</text>
<polygon fill="none" stroke="black" points="327.75,-667.25 327.75,-690 371.5,-690 371.5,-667.25 327.75,-667.25"/>
<text text-anchor="start" x="337.25" y="-675.5" font-family="Linux libertine" font-size="10.00">input:</text>
<polygon fill="none" stroke="black" points="371.5,-667.25 371.5,-690 408.5,-690 408.5,-667.25 371.5,-667.25"/>
<text text-anchor="start" x="376.5" y="-675.5" font-family="Linux libertine" font-size="10.00">(1, 7) </text>
<polygon fill="none" stroke="black" points="327.75,-644.5 327.75,-667.25 371.5,-667.25 371.5,-644.5 327.75,-644.5"/>
<text text-anchor="start" x="332.75" y="-652.75" font-family="Linux libertine" font-size="10.00">output: </text>
<polygon fill="none" stroke="black" points="371.5,-644.5 371.5,-667.25 408.5,-667.25 408.5,-644.5 371.5,-644.5"/>
<text text-anchor="start" x="376.5" y="-652.75" font-family="Linux libertine" font-size="10.00">(1, 7) </text>
</g>
<!-- 2&#45;&gt;3 -->
<g id="edge1" class="edge">
<title>2&#45;&gt;3</title>
<path fill="none" stroke="black" d="M346.62,-704.14C346.62,-703.14 346.62,-702.12 346.62,-701.08"/>
<polygon fill="black" stroke="black" points="350.13,-701.27 346.63,-691.27 343.13,-701.27 350.13,-701.27"/>
</g>
<!-- 4 -->
<g id="node5" class="node">
<title>4</title>
<polygon fill="aliceblue" stroke="none" points="343.62,-630.5 199.62,-630.5 199.62,-585 343.62,-585 343.62,-630.5"/>
<polygon fill="none" stroke="black" points="199.62,-585 199.62,-630.5 262.88,-630.5 262.88,-585 199.62,-585"/>
<text text-anchor="start" x="204.62" y="-611" font-family="Linux libertine" font-size="10.00">__getitem__</text>
<text text-anchor="start" x="214.75" y="-598.25" font-family="Linux libertine" font-size="10.00">depth:2</text>
<polygon fill="none" stroke="black" points="262.88,-607.75 262.88,-630.5 306.62,-630.5 306.62,-607.75 262.88,-607.75"/>
<text text-anchor="start" x="272.38" y="-616" font-family="Linux libertine" font-size="10.00">input:</text>
<polygon fill="none" stroke="black" points="306.62,-607.75 306.62,-630.5 343.62,-630.5 343.62,-607.75 306.62,-607.75"/>
<text text-anchor="start" x="311.62" y="-616" font-family="Linux libertine" font-size="10.00">(1, 7) </text>
<polygon fill="none" stroke="black" points="262.88,-585 262.88,-607.75 306.62,-607.75 306.62,-585 262.88,-585"/>
<text text-anchor="start" x="267.88" y="-593.25" font-family="Linux libertine" font-size="10.00">output: </text>
<polygon fill="none" stroke="black" points="306.62,-585 306.62,-607.75 343.62,-607.75 343.62,-585 306.62,-585"/>
<text text-anchor="start" x="311.62" y="-593.25" font-family="Linux libertine" font-size="10.00">(1, 7) </text>
</g>
<!-- 3&#45;&gt;4 -->
<g id="edge2" class="edge">
<title>3&#45;&gt;4</title>
<path fill="none" stroke="black" d="M318.27,-644.51C315.11,-642.08 311.85,-639.59 308.59,-637.09"/>
<polygon fill="black" stroke="black" points="310.79,-634.37 300.72,-631.06 306.53,-639.92 310.79,-634.37"/>
</g>
<!-- 5 -->
<g id="node6" class="node">
<title>5</title>
<polygon fill="aliceblue" stroke="none" points="495.62,-630.5 351.62,-630.5 351.62,-585 495.62,-585 495.62,-630.5"/>
<polygon fill="none" stroke="black" points="351.62,-585 351.62,-630.5 414.88,-630.5 414.88,-585 351.62,-585"/>
<text text-anchor="start" x="356.62" y="-611" font-family="Linux libertine" font-size="10.00">__getitem__</text>
<text text-anchor="start" x="366.75" y="-598.25" font-family="Linux libertine" font-size="10.00">depth:2</text>
<polygon fill="none" stroke="black" points="414.88,-607.75 414.88,-630.5 458.62,-630.5 458.62,-607.75 414.88,-607.75"/>
<text text-anchor="start" x="424.38" y="-616" font-family="Linux libertine" font-size="10.00">input:</text>
<polygon fill="none" stroke="black" points="458.62,-607.75 458.62,-630.5 495.62,-630.5 495.62,-607.75 458.62,-607.75"/>
<text text-anchor="start" x="463.62" y="-616" font-family="Linux libertine" font-size="10.00">(1, 7) </text>
<polygon fill="none" stroke="black" points="414.88,-585 414.88,-607.75 458.62,-607.75 458.62,-585 414.88,-585"/>
<text text-anchor="start" x="419.88" y="-593.25" font-family="Linux libertine" font-size="10.00">output: </text>
<polygon fill="none" stroke="black" points="458.62,-585 458.62,-607.75 495.62,-607.75 495.62,-585 458.62,-585"/>
<text text-anchor="start" x="463.62" y="-593.25" font-family="Linux libertine" font-size="10.00">(1, 0) </text>
</g>
<!-- 3&#45;&gt;5 -->
<g id="edge3" class="edge">
<title>3&#45;&gt;5</title>
<path fill="none" stroke="black" d="M375.74,-644.51C378.94,-642.12 382.24,-639.65 385.53,-637.19"/>
<polygon fill="black" stroke="black" points="387.6,-640.02 393.52,-631.23 383.41,-634.41 387.6,-640.02"/>
</g>
<!-- 6 -->
<g id="node7" class="node">
<title>6</title>
<polygon fill="aliceblue" stroke="none" points="331.5,-571 207.75,-571 207.75,-525.5 331.5,-525.5 331.5,-571"/>
<polygon fill="none" stroke="black" points="207.75,-525.5 207.75,-571 250.75,-571 250.75,-525.5 207.75,-525.5"/>
<text text-anchor="start" x="225.12" y="-551.5" font-family="Linux libertine" font-size="10.00">to</text>
<text text-anchor="start" x="212.75" y="-538.75" font-family="Linux libertine" font-size="10.00">depth:2</text>
<polygon fill="none" stroke="black" points="250.75,-548.25 250.75,-571 294.5,-571 294.5,-548.25 250.75,-548.25"/>
<text text-anchor="start" x="260.25" y="-556.5" font-family="Linux libertine" font-size="10.00">input:</text>
<polygon fill="none" stroke="black" points="294.5,-548.25 294.5,-571 331.5,-571 331.5,-548.25 294.5,-548.25"/>
<text text-anchor="start" x="299.5" y="-556.5" font-family="Linux libertine" font-size="10.00">(1, 7) </text>
<polygon fill="none" stroke="black" points="250.75,-525.5 250.75,-548.25 294.5,-548.25 294.5,-525.5 250.75,-525.5"/>
<text text-anchor="start" x="255.75" y="-533.75" font-family="Linux libertine" font-size="10.00">output: </text>
<polygon fill="none" stroke="black" points="294.5,-525.5 294.5,-548.25 331.5,-548.25 331.5,-525.5 294.5,-525.5"/>
<text text-anchor="start" x="299.5" y="-533.75" font-family="Linux libertine" font-size="10.00">(1, 7) </text>
</g>
<!-- 4&#45;&gt;6 -->
<g id="edge4" class="edge">
<title>4&#45;&gt;6</title>
<path fill="none" stroke="black" d="M270.87,-585.01C270.83,-583.98 270.8,-582.94 270.76,-581.89"/>
<polygon fill="black" stroke="black" points="274.27,-582.02 270.42,-572.15 267.27,-582.27 274.27,-582.02"/>
</g>
<!-- 7 -->
<g id="node8" class="node">
<title>7</title>
<polygon fill="aliceblue" stroke="none" points="486.5,-571 362.75,-571 362.75,-525.5 486.5,-525.5 486.5,-571"/>
<polygon fill="none" stroke="black" points="362.75,-525.5 362.75,-571 405.75,-571 405.75,-525.5 362.75,-525.5"/>
<text text-anchor="start" x="380.12" y="-551.5" font-family="Linux libertine" font-size="10.00">to</text>
<text text-anchor="start" x="367.75" y="-538.75" font-family="Linux libertine" font-size="10.00">depth:2</text>
<polygon fill="none" stroke="black" points="405.75,-548.25 405.75,-571 449.5,-571 449.5,-548.25 405.75,-548.25"/>
<text text-anchor="start" x="415.25" y="-556.5" font-family="Linux libertine" font-size="10.00">input:</text>
<polygon fill="none" stroke="black" points="449.5,-548.25 449.5,-571 486.5,-571 486.5,-548.25 449.5,-548.25"/>
<text text-anchor="start" x="454.5" y="-556.5" font-family="Linux libertine" font-size="10.00">(1, 0) </text>
<polygon fill="none" stroke="black" points="405.75,-525.5 405.75,-548.25 449.5,-548.25 449.5,-525.5 405.75,-525.5"/>
<text text-anchor="start" x="410.75" y="-533.75" font-family="Linux libertine" font-size="10.00">output: </text>
<polygon fill="none" stroke="black" points="449.5,-525.5 449.5,-548.25 486.5,-548.25 486.5,-525.5 449.5,-525.5"/>
<text text-anchor="start" x="454.5" y="-533.75" font-family="Linux libertine" font-size="10.00">(1, 0) </text>
</g>
<!-- 5&#45;&gt;7 -->
<g id="edge5" class="edge">
<title>5&#45;&gt;7</title>
<path fill="none" stroke="black" d="M424,-585.01C424.02,-583.98 424.04,-582.94 424.06,-581.89"/>
<polygon fill="black" stroke="black" points="427.55,-582.21 424.23,-572.15 420.55,-582.09 427.55,-582.21"/>
</g>
<!-- 8 -->
<g id="node9" class="node">
<title>8</title>
<polygon fill="#c1ffc1" stroke="none" points="356.75,-511.5 174.5,-511.5 174.5,-466 356.75,-466 356.75,-511.5"/>
<polygon fill="none" stroke="black" points="174.5,-466 174.5,-511.5 254.25,-511.5 254.25,-466 174.5,-466"/>
<text text-anchor="start" x="179.5" y="-492" font-family="Linux libertine" font-size="10.00">BertEmbeddings</text>
<text text-anchor="start" x="197.88" y="-479.25" font-family="Linux libertine" font-size="10.00">depth:3</text>
<polygon fill="none" stroke="black" points="254.25,-488.75 254.25,-511.5 298,-511.5 298,-488.75 254.25,-488.75"/>
<text text-anchor="start" x="263.75" y="-497" font-family="Linux libertine" font-size="10.00">input:</text>
<polygon fill="none" stroke="black" points="298,-488.75 298,-511.5 356.75,-511.5 356.75,-488.75 298,-488.75"/>
<text text-anchor="start" x="313.88" y="-497" font-family="Linux libertine" font-size="10.00">(1, 7) </text>
<polygon fill="none" stroke="black" points="254.25,-466 254.25,-488.75 298,-488.75 298,-466 254.25,-466"/>
<text text-anchor="start" x="259.25" y="-474.25" font-family="Linux libertine" font-size="10.00">output: </text>
<polygon fill="none" stroke="black" points="298,-466 298,-488.75 356.75,-488.75 356.75,-466 298,-466"/>
<text text-anchor="start" x="303" y="-474.25" font-family="Linux libertine" font-size="10.00">(1, 7, 768) </text>
</g>
<!-- 6&#45;&gt;8 -->
<g id="edge6" class="edge">
<title>6&#45;&gt;8</title>
<path fill="none" stroke="black" d="M268.11,-525.51C268.04,-524.48 267.97,-523.44 267.9,-522.39"/>
<polygon fill="black" stroke="black" points="271.4,-522.38 267.22,-512.65 264.42,-522.87 271.4,-522.38"/>
</g>
<!-- 9 -->
<g id="node10" class="node">
<title>9</title>
<polygon fill="aliceblue" stroke="none" points="487.5,-511.5 363.75,-511.5 363.75,-466 487.5,-466 487.5,-511.5"/>
<polygon fill="none" stroke="black" points="363.75,-466 363.75,-511.5 406.75,-511.5 406.75,-466 363.75,-466"/>
<text text-anchor="start" x="380" y="-492" font-family="Linux libertine" font-size="10.00">eq</text>
<text text-anchor="start" x="368.75" y="-479.25" font-family="Linux libertine" font-size="10.00">depth:3</text>
<polygon fill="none" stroke="black" points="406.75,-488.75 406.75,-511.5 450.5,-511.5 450.5,-488.75 406.75,-488.75"/>
<text text-anchor="start" x="416.25" y="-497" font-family="Linux libertine" font-size="10.00">input:</text>
<polygon fill="none" stroke="black" points="450.5,-488.75 450.5,-511.5 487.5,-511.5 487.5,-488.75 450.5,-488.75"/>
<text text-anchor="start" x="455.5" y="-497" font-family="Linux libertine" font-size="10.00">(1, 0) </text>
<polygon fill="none" stroke="black" points="406.75,-466 406.75,-488.75 450.5,-488.75 450.5,-466 406.75,-466"/>
<text text-anchor="start" x="411.75" y="-474.25" font-family="Linux libertine" font-size="10.00">output: </text>
<polygon fill="none" stroke="black" points="450.5,-466 450.5,-488.75 487.5,-488.75 487.5,-466 450.5,-466"/>
<text text-anchor="start" x="455.5" y="-474.25" font-family="Linux libertine" font-size="10.00">(1, 0) </text>
</g>
<!-- 7&#45;&gt;9 -->
<g id="edge7" class="edge">
<title>7&#45;&gt;9</title>
<path fill="none" stroke="black" d="M425,-525.51C425.02,-524.48 425.04,-523.44 425.06,-522.39"/>
<polygon fill="black" stroke="black" points="428.55,-522.71 425.23,-512.65 421.55,-522.59 428.55,-522.71"/>
</g>
<!-- 11 -->
<g id="node12" class="node">
<title>11</title>
<polygon fill="#c1ffc1" stroke="none" points="348.12,-452 183.12,-452 183.12,-406.5 348.12,-406.5 348.12,-452"/>
<polygon fill="none" stroke="black" points="183.12,-406.5 183.12,-452 245.62,-452 245.62,-406.5 183.12,-406.5"/>
<text text-anchor="start" x="188.12" y="-432.5" font-family="Linux libertine" font-size="10.00">BertEncoder</text>
<text text-anchor="start" x="197.88" y="-419.75" font-family="Linux libertine" font-size="10.00">depth:3</text>
<polygon fill="none" stroke="black" points="245.62,-429.25 245.62,-452 289.38,-452 289.38,-429.25 245.62,-429.25"/>
<text text-anchor="start" x="255.12" y="-437.5" font-family="Linux libertine" font-size="10.00">input:</text>
<polygon fill="none" stroke="black" points="289.38,-429.25 289.38,-452 348.12,-452 348.12,-429.25 289.38,-429.25"/>
<text text-anchor="start" x="294.38" y="-437.5" font-family="Linux libertine" font-size="10.00">(1, 7, 768) </text>
<polygon fill="none" stroke="black" points="245.62,-406.5 245.62,-429.25 289.38,-429.25 289.38,-406.5 245.62,-406.5"/>
<text text-anchor="start" x="250.62" y="-414.75" font-family="Linux libertine" font-size="10.00">output: </text>
<polygon fill="none" stroke="black" points="289.38,-406.5 289.38,-429.25 348.12,-429.25 348.12,-406.5 289.38,-406.5"/>
<text text-anchor="start" x="294.38" y="-414.75" font-family="Linux libertine" font-size="10.00">(1, 7, 768) </text>
</g>
<!-- 8&#45;&gt;11 -->
<g id="edge8" class="edge">
<title>8&#45;&gt;11</title>
<path fill="none" stroke="black" d="M265.62,-466.01C265.62,-464.98 265.62,-463.94 265.62,-462.89"/>
<polygon fill="black" stroke="black" points="269.13,-463.15 265.63,-453.15 262.13,-463.15 269.13,-463.15"/>
</g>
<!-- 10 -->
<g id="node11" class="node">
<title>10</title>
<polygon fill="aliceblue" stroke="none" points="487.5,-452 363.75,-452 363.75,-406.5 487.5,-406.5 487.5,-452"/>
<polygon fill="none" stroke="black" points="363.75,-406.5 363.75,-452 406.75,-452 406.75,-406.5 363.75,-406.5"/>
<text text-anchor="start" x="380.38" y="-432.5" font-family="Linux libertine" font-size="10.00">all</text>
<text text-anchor="start" x="368.75" y="-419.75" font-family="Linux libertine" font-size="10.00">depth:3</text>
<polygon fill="none" stroke="black" points="406.75,-429.25 406.75,-452 450.5,-452 450.5,-429.25 406.75,-429.25"/>
<text text-anchor="start" x="416.25" y="-437.5" font-family="Linux libertine" font-size="10.00">input:</text>
<polygon fill="none" stroke="black" points="450.5,-429.25 450.5,-452 487.5,-452 487.5,-429.25 450.5,-429.25"/>
<text text-anchor="start" x="455.5" y="-437.5" font-family="Linux libertine" font-size="10.00">(1, 0) </text>
<polygon fill="none" stroke="black" points="406.75,-406.5 406.75,-429.25 450.5,-429.25 450.5,-406.5 406.75,-406.5"/>
<text text-anchor="start" x="411.75" y="-414.75" font-family="Linux libertine" font-size="10.00">output: </text>
<polygon fill="none" stroke="black" points="450.5,-406.5 450.5,-429.25 487.5,-429.25 487.5,-406.5 450.5,-406.5"/>
<text text-anchor="start" x="463.75" y="-414.75" font-family="Linux libertine" font-size="10.00">() </text>
</g>
<!-- 9&#45;&gt;10 -->
<g id="edge9" class="edge">
<title>9&#45;&gt;10</title>
<path fill="none" stroke="black" d="M425.62,-466.01C425.62,-464.98 425.62,-463.94 425.62,-462.89"/>
<polygon fill="black" stroke="black" points="429.13,-463.15 425.63,-453.15 422.13,-463.15 429.13,-463.15"/>
</g>
<!-- 12 -->
<g id="node13" class="node">
<title>12</title>
<polygon fill="#c1ffc1" stroke="none" points="254.38,-392.5 96.88,-392.5 96.88,-347 254.38,-347 254.38,-392.5"/>
<polygon fill="none" stroke="black" points="96.88,-347 96.88,-392.5 151.88,-392.5 151.88,-347 96.88,-347"/>
<text text-anchor="start" x="101.88" y="-373" font-family="Linux libertine" font-size="10.00">BertPooler</text>
<text text-anchor="start" x="107.88" y="-360.25" font-family="Linux libertine" font-size="10.00">depth:3</text>
<polygon fill="none" stroke="black" points="151.88,-369.75 151.88,-392.5 195.62,-392.5 195.62,-369.75 151.88,-369.75"/>
<text text-anchor="start" x="161.38" y="-378" font-family="Linux libertine" font-size="10.00">input:</text>
<polygon fill="none" stroke="black" points="195.62,-369.75 195.62,-392.5 254.38,-392.5 254.38,-369.75 195.62,-369.75"/>
<text text-anchor="start" x="200.62" y="-378" font-family="Linux libertine" font-size="10.00">(1, 7, 768) </text>
<polygon fill="none" stroke="black" points="151.88,-347 151.88,-369.75 195.62,-369.75 195.62,-347 151.88,-347"/>
<text text-anchor="start" x="156.88" y="-355.25" font-family="Linux libertine" font-size="10.00">output: </text>
<polygon fill="none" stroke="black" points="195.62,-347 195.62,-369.75 254.38,-369.75 254.38,-347 195.62,-347"/>
<text text-anchor="start" x="206.25" y="-355.25" font-family="Linux libertine" font-size="10.00">(1, 768) </text>
</g>
<!-- 11&#45;&gt;12 -->
<g id="edge10" class="edge">
<title>11&#45;&gt;12</title>
<path fill="none" stroke="black" d="M231.6,-406.51C227.51,-403.9 223.3,-401.21 219.1,-398.52"/>
<polygon fill="black" stroke="black" points="220.99,-395.58 210.68,-393.14 217.22,-401.48 220.99,-395.58"/>
</g>
<!-- 13 -->
<g id="node14" class="node">
<title>13</title>
<polygon fill="#c1ffc1" stroke="none" points="452.25,-392.5 261,-392.5 261,-347 452.25,-347 452.25,-392.5"/>
<polygon fill="none" stroke="black" points="261,-347 261,-392.5 349.75,-392.5 349.75,-347 261,-347"/>
<text text-anchor="start" x="266" y="-373" font-family="Linux libertine" font-size="10.00">PositionalEncoding</text>
<text text-anchor="start" x="288.88" y="-360.25" font-family="Linux libertine" font-size="10.00">depth:2</text>
<polygon fill="none" stroke="black" points="349.75,-369.75 349.75,-392.5 393.5,-392.5 393.5,-369.75 349.75,-369.75"/>
<text text-anchor="start" x="359.25" y="-378" font-family="Linux libertine" font-size="10.00">input:</text>
<polygon fill="none" stroke="black" points="393.5,-369.75 393.5,-392.5 452.25,-392.5 452.25,-369.75 393.5,-369.75"/>
<text text-anchor="start" x="398.5" y="-378" font-family="Linux libertine" font-size="10.00">(1, 7, 768) </text>
<polygon fill="none" stroke="black" points="349.75,-347 349.75,-369.75 393.5,-369.75 393.5,-347 349.75,-347"/>
<text text-anchor="start" x="354.75" y="-355.25" font-family="Linux libertine" font-size="10.00">output: </text>
<polygon fill="none" stroke="black" points="393.5,-347 393.5,-369.75 452.25,-369.75 452.25,-347 393.5,-347"/>
<text text-anchor="start" x="398.5" y="-355.25" font-family="Linux libertine" font-size="10.00">(1, 7, 768) </text>
</g>
<!-- 11&#45;&gt;13 -->
<g id="edge11" class="edge">
<title>11&#45;&gt;13</title>
<path fill="none" stroke="black" d="M300.03,-406.51C304.28,-403.83 308.66,-401.06 313.02,-398.3"/>
<polygon fill="black" stroke="black" points="314.61,-401.44 321.2,-393.14 310.87,-395.52 314.61,-401.44"/>
</g>
<!-- 14 -->
<g id="node15" class="node">
<title>14</title>
<polygon fill="aliceblue" stroke="none" points="439.5,-333 273.75,-333 273.75,-287.5 439.5,-287.5 439.5,-333"/>
<polygon fill="none" stroke="black" points="273.75,-287.5 273.75,-333 337,-333 337,-287.5 273.75,-287.5"/>
<text text-anchor="start" x="278.75" y="-313.5" font-family="Linux libertine" font-size="10.00">__getitem__</text>
<text text-anchor="start" x="288.88" y="-300.75" font-family="Linux libertine" font-size="10.00">depth:2</text>
<polygon fill="none" stroke="black" points="337,-310.25 337,-333 380.75,-333 380.75,-310.25 337,-310.25"/>
<text text-anchor="start" x="346.5" y="-318.5" font-family="Linux libertine" font-size="10.00">input:</text>
<polygon fill="none" stroke="black" points="380.75,-310.25 380.75,-333 439.5,-333 439.5,-310.25 380.75,-310.25"/>
<text text-anchor="start" x="385.75" y="-318.5" font-family="Linux libertine" font-size="10.00">(1, 7, 768) </text>
<polygon fill="none" stroke="black" points="337,-287.5 337,-310.25 380.75,-310.25 380.75,-287.5 337,-287.5"/>
<text text-anchor="start" x="342" y="-295.75" font-family="Linux libertine" font-size="10.00">output: </text>
<polygon fill="none" stroke="black" points="380.75,-287.5 380.75,-310.25 439.5,-310.25 439.5,-287.5 380.75,-287.5"/>
<text text-anchor="start" x="391.38" y="-295.75" font-family="Linux libertine" font-size="10.00">(1, 768) </text>
</g>
<!-- 13&#45;&gt;14 -->
<g id="edge12" class="edge">
<title>13&#45;&gt;14</title>
<path fill="none" stroke="black" d="M356.62,-347.01C356.62,-345.98 356.62,-344.94 356.62,-343.89"/>
<polygon fill="black" stroke="black" points="360.13,-344.15 356.63,-334.15 353.13,-344.15 360.13,-344.15"/>
</g>
<!-- 15 -->
<g id="node16" class="node">
<title>15</title>
<polygon fill="#c1ffc1" stroke="none" points="424.5,-273.5 288.75,-273.5 288.75,-228 424.5,-228 424.5,-273.5"/>
<polygon fill="none" stroke="black" points="288.75,-228 288.75,-273.5 333.25,-273.5 333.25,-228 288.75,-228"/>
<text text-anchor="start" x="293.75" y="-254" font-family="Linux libertine" font-size="10.00">Dropout</text>
<text text-anchor="start" x="294.5" y="-241.25" font-family="Linux libertine" font-size="10.00">depth:2</text>
<polygon fill="none" stroke="black" points="333.25,-250.75 333.25,-273.5 377,-273.5 377,-250.75 333.25,-250.75"/>
<text text-anchor="start" x="342.75" y="-259" font-family="Linux libertine" font-size="10.00">input:</text>
<polygon fill="none" stroke="black" points="377,-250.75 377,-273.5 424.5,-273.5 424.5,-250.75 377,-250.75"/>
<text text-anchor="start" x="382" y="-259" font-family="Linux libertine" font-size="10.00">(1, 768) </text>
<polygon fill="none" stroke="black" points="333.25,-228 333.25,-250.75 377,-250.75 377,-228 333.25,-228"/>
<text text-anchor="start" x="338.25" y="-236.25" font-family="Linux libertine" font-size="10.00">output: </text>
<polygon fill="none" stroke="black" points="377,-228 377,-250.75 424.5,-250.75 424.5,-228 377,-228"/>
<text text-anchor="start" x="382" y="-236.25" font-family="Linux libertine" font-size="10.00">(1, 768) </text>
</g>
<!-- 14&#45;&gt;15 -->
<g id="edge13" class="edge">
<title>14&#45;&gt;15</title>
<path fill="none" stroke="black" d="M356.62,-287.51C356.62,-286.48 356.62,-285.44 356.62,-284.39"/>
<polygon fill="black" stroke="black" points="360.13,-284.65 356.63,-274.65 353.13,-284.65 360.13,-284.65"/>
</g>
<!-- 16 -->
<g id="node17" class="node">
<title>16</title>
<polygon fill="#c1ffc1" stroke="none" points="423.75,-214 289.5,-214 289.5,-168.5 423.75,-168.5 423.75,-214"/>
<polygon fill="none" stroke="black" points="289.5,-168.5 289.5,-214 332.5,-214 332.5,-168.5 289.5,-168.5"/>
<text text-anchor="start" x="297.5" y="-194.5" font-family="Linux libertine" font-size="10.00">Linear</text>
<text text-anchor="start" x="294.5" y="-181.75" font-family="Linux libertine" font-size="10.00">depth:2</text>
<polygon fill="none" stroke="black" points="332.5,-191.25 332.5,-214 376.25,-214 376.25,-191.25 332.5,-191.25"/>
<text text-anchor="start" x="342" y="-199.5" font-family="Linux libertine" font-size="10.00">input:</text>
<polygon fill="none" stroke="black" points="376.25,-191.25 376.25,-214 423.75,-214 423.75,-191.25 376.25,-191.25"/>
<text text-anchor="start" x="381.25" y="-199.5" font-family="Linux libertine" font-size="10.00">(1, 768) </text>
<polygon fill="none" stroke="black" points="332.5,-168.5 332.5,-191.25 376.25,-191.25 376.25,-168.5 332.5,-168.5"/>
<text text-anchor="start" x="337.5" y="-176.75" font-family="Linux libertine" font-size="10.00">output: </text>
<polygon fill="none" stroke="black" points="376.25,-168.5 376.25,-191.25 423.75,-191.25 423.75,-168.5 376.25,-168.5"/>
<text text-anchor="start" x="383.88" y="-176.75" font-family="Linux libertine" font-size="10.00">(1, 64) </text>
</g>
<!-- 15&#45;&gt;16 -->
<g id="edge14" class="edge">
<title>15&#45;&gt;16</title>
<path fill="none" stroke="black" d="M356.62,-228.01C356.62,-226.98 356.62,-225.94 356.62,-224.89"/>
<polygon fill="black" stroke="black" points="360.13,-225.15 356.63,-215.15 353.13,-225.15 360.13,-225.15"/>
</g>
<!-- 17 -->
<g id="node18" class="node">
<title>17</title>
<polygon fill="#c1ffc1" stroke="none" points="421.12,-154.5 292.12,-154.5 292.12,-109 421.12,-109 421.12,-154.5"/>
<polygon fill="none" stroke="black" points="292.12,-109 292.12,-154.5 335.12,-154.5 335.12,-109 292.12,-109"/>
<text text-anchor="start" x="300.12" y="-135" font-family="Linux libertine" font-size="10.00">Linear</text>
<text text-anchor="start" x="297.12" y="-122.25" font-family="Linux libertine" font-size="10.00">depth:1</text>
<polygon fill="none" stroke="black" points="335.12,-131.75 335.12,-154.5 378.88,-154.5 378.88,-131.75 335.12,-131.75"/>
<text text-anchor="start" x="344.62" y="-140" font-family="Linux libertine" font-size="10.00">input:</text>
<polygon fill="none" stroke="black" points="378.88,-131.75 378.88,-154.5 421.12,-154.5 421.12,-131.75 378.88,-131.75"/>
<text text-anchor="start" x="383.88" y="-140" font-family="Linux libertine" font-size="10.00">(1, 64) </text>
<polygon fill="none" stroke="black" points="335.12,-109 335.12,-131.75 378.88,-131.75 378.88,-109 335.12,-109"/>
<text text-anchor="start" x="340.12" y="-117.25" font-family="Linux libertine" font-size="10.00">output: </text>
<polygon fill="none" stroke="black" points="378.88,-109 378.88,-131.75 421.12,-131.75 421.12,-109 378.88,-109"/>
<text text-anchor="start" x="386.5" y="-117.25" font-family="Linux libertine" font-size="10.00">(1, 1) </text>
</g>
<!-- 16&#45;&gt;17 -->
<g id="edge15" class="edge">
<title>16&#45;&gt;17</title>
<path fill="none" stroke="black" d="M356.62,-168.51C356.62,-167.48 356.62,-166.44 356.62,-165.39"/>
<polygon fill="black" stroke="black" points="360.13,-165.65 356.63,-155.65 353.13,-165.65 360.13,-165.65"/>
</g>
<!-- 18 -->
<g id="node19" class="node">
<title>18</title>
<polygon fill="#c1ffc1" stroke="none" points="418.88,-95 294.38,-95 294.38,-49.5 418.88,-49.5 418.88,-95"/>
<polygon fill="none" stroke="black" points="294.38,-49.5 294.38,-95 338.12,-95 338.12,-49.5 294.38,-49.5"/>
<text text-anchor="start" x="299.38" y="-75.5" font-family="Linux libertine" font-size="10.00">Sigmoid</text>
<text text-anchor="start" x="299.75" y="-62.75" font-family="Linux libertine" font-size="10.00">depth:1</text>
<polygon fill="none" stroke="black" points="338.12,-72.25 338.12,-95 381.88,-95 381.88,-72.25 338.12,-72.25"/>
<text text-anchor="start" x="347.62" y="-80.5" font-family="Linux libertine" font-size="10.00">input:</text>
<polygon fill="none" stroke="black" points="381.88,-72.25 381.88,-95 418.88,-95 418.88,-72.25 381.88,-72.25"/>
<text text-anchor="start" x="386.88" y="-80.5" font-family="Linux libertine" font-size="10.00">(1, 1) </text>
<polygon fill="none" stroke="black" points="338.12,-49.5 338.12,-72.25 381.88,-72.25 381.88,-49.5 338.12,-49.5"/>
<text text-anchor="start" x="343.12" y="-57.75" font-family="Linux libertine" font-size="10.00">output: </text>
<polygon fill="none" stroke="black" points="381.88,-49.5 381.88,-72.25 418.88,-72.25 418.88,-49.5 381.88,-49.5"/>
<text text-anchor="start" x="386.88" y="-57.75" font-family="Linux libertine" font-size="10.00">(1, 1) </text>
</g>
<!-- 17&#45;&gt;18 -->
<g id="edge16" class="edge">
<title>17&#45;&gt;18</title>
<path fill="none" stroke="black" d="M356.62,-109.01C356.62,-107.98 356.62,-106.94 356.62,-105.89"/>
<polygon fill="black" stroke="black" points="360.13,-106.15 356.63,-96.15 353.13,-106.15 360.13,-106.15"/>
</g>
<!-- 19 -->
<g id="node20" class="node">
<title>19</title>
<polygon fill="lightyellow" stroke="none" points="407.5,-35.5 305.75,-35.5 305.75,0 407.5,0 407.5,-35.5"/>
<polygon fill="none" stroke="black" points="305.75,0 305.75,-35.5 373.5,-35.5 373.5,0 305.75,0"/>
<text text-anchor="start" x="310.75" y="-21" font-family="Linux libertine" font-size="10.00">output&#45;tensor</text>
<text text-anchor="start" x="323.12" y="-8.25" font-family="Linux libertine" font-size="10.00">depth:0</text>
<polygon fill="none" stroke="black" points="373.5,0 373.5,-35.5 407.5,-35.5 407.5,0 373.5,0"/>
<text text-anchor="start" x="378.5" y="-14.62" font-family="Linux libertine" font-size="10.00">(1, 1)</text>
</g>
<!-- 18&#45;&gt;19 -->
<g id="edge17" class="edge">
<title>18&#45;&gt;19</title>
<path fill="none" stroke="black" d="M356.62,-49.59C356.62,-48.56 356.62,-47.51 356.62,-46.46"/>
<polygon fill="black" stroke="black" points="360.13,-46.9 356.63,-36.9 353.13,-46.9 360.13,-46.9"/>
</g>
</g>
</svg>
