<?xml version="1.0" encoding="UTF-8" standalone="no"?>
<!DOCTYPE svg PUBLIC "-//W3C//DTD SVG 1.1//EN"
 "http://www.w3.org/Graphics/SVG/1.1/DTD/svg11.dtd">
<!-- Generated by graphviz version 12.2.1 (20241206.2353)
 -->
<!-- Title: MultiChannelModel Pages: 1 -->
<svg width="376pt" height="864pt"
 viewBox="0.00 0.00 375.55 864.00" xmlns="http://www.w3.org/2000/svg" xmlns:xlink="http://www.w3.org/1999/xlink">
<g id="graph0" class="graph" transform="scale(0.933045 0.933045) rotate(0) translate(4 922)">
<title>MultiChannelModel</title>
<polygon fill="white" stroke="none" points="-4,4 -4,-922 398.5,-922 398.5,4 -4,4"/>
<!-- 0 -->
<g id="node1" class="node">
<title>0</title>
<polygon fill="lightyellow" stroke="none" points="139.25,-918 0,-918 0,-882.5 139.25,-882.5 139.25,-918"/>
<polygon fill="none" stroke="black" points="0,-882.5 0,-918 61.75,-918 61.75,-882.5 0,-882.5"/>
<text text-anchor="start" x="5" y="-903.5" font-family="Linux libertine" font-size="10.00">input&#45;tensor</text>
<text text-anchor="start" x="14.38" y="-890.75" font-family="Linux libertine" font-size="10.00">depth:0</text>
<polygon fill="none" stroke="black" points="61.75,-882.5 61.75,-918 139.25,-918 139.25,-882.5 61.75,-882.5"/>
<text text-anchor="start" x="66.75" y="-897.12" font-family="Linux libertine" font-size="10.00">(1, 3, 256, 256)</text>
</g>
<!-- 1 -->
<g id="node2" class="node">
<title>1</title>
<polygon fill="lightyellow" stroke="none" points="291.25,-918 146,-918 146,-882.5 291.25,-882.5 291.25,-918"/>
<polygon fill="none" stroke="black" points="146,-882.5 146,-918 207.75,-918 207.75,-882.5 146,-882.5"/>
<text text-anchor="start" x="151" y="-903.5" font-family="Linux libertine" font-size="10.00">input&#45;tensor</text>
<text text-anchor="start" x="160.38" y="-890.75" font-family="Linux libertine" font-size="10.00">depth:0</text>
<polygon fill="none" stroke="black" points="207.75,-882.5 207.75,-918 291.25,-918 291.25,-882.5 207.75,-882.5"/>
<text text-anchor="start" x="212.75" y="-897.12" font-family="Linux libertine" font-size="10.00">(1, 50, 3, 64, 64)</text>
</g>
<!-- 3 -->
<g id="node4" class="node">
<title>3</title>
<polygon fill="aliceblue" stroke="none" points="305.25,-868.5 132,-868.5 132,-823 305.25,-823 305.25,-868.5"/>
<polygon fill="none" stroke="black" points="132,-823 132,-868.5 175,-868.5 175,-823 132,-823"/>
<text text-anchor="start" x="149.38" y="-849" font-family="Linux libertine" font-size="10.00">to</text>
<text text-anchor="start" x="137" y="-836.25" font-family="Linux libertine" font-size="10.00">depth:1</text>
<polygon fill="none" stroke="black" points="175,-845.75 175,-868.5 218.75,-868.5 218.75,-845.75 175,-845.75"/>
<text text-anchor="start" x="184.5" y="-854" font-family="Linux libertine" font-size="10.00">input:</text>
<polygon fill="none" stroke="black" points="218.75,-845.75 218.75,-868.5 305.25,-868.5 305.25,-845.75 218.75,-845.75"/>
<text text-anchor="start" x="223.75" y="-854" font-family="Linux libertine" font-size="10.00">(1, 50, 3, 64, 64) </text>
<polygon fill="none" stroke="black" points="175,-823 175,-845.75 218.75,-845.75 218.75,-823 175,-823"/>
<text text-anchor="start" x="180" y="-831.25" font-family="Linux libertine" font-size="10.00">output: </text>
<polygon fill="none" stroke="black" points="218.75,-823 218.75,-845.75 305.25,-845.75 305.25,-823 218.75,-823"/>
<text text-anchor="start" x="223.75" y="-831.25" font-family="Linux libertine" font-size="10.00">(1, 50, 3, 64, 64) </text>
</g>
<!-- 1&#45;&gt;3 -->
<g id="edge1" class="edge">
<title>1&#45;&gt;3</title>
<path fill="none" stroke="black" d="M218.62,-882.64C218.62,-881.64 218.62,-880.62 218.62,-879.58"/>
<polygon fill="black" stroke="black" points="222.13,-879.77 218.63,-869.77 215.13,-879.77 222.13,-879.77"/>
</g>
<!-- 2 -->
<g id="node3" class="node">
<title>2</title>
<polygon fill="lightyellow" stroke="none" points="394.5,-918 298.75,-918 298.75,-882.5 394.5,-882.5 394.5,-918"/>
<polygon fill="none" stroke="black" points="298.75,-882.5 298.75,-918 360.5,-918 360.5,-882.5 298.75,-882.5"/>
<text text-anchor="start" x="303.75" y="-903.5" font-family="Linux libertine" font-size="10.00">input&#45;tensor</text>
<text text-anchor="start" x="313.12" y="-890.75" font-family="Linux libertine" font-size="10.00">depth:0</text>
<polygon fill="none" stroke="black" points="360.5,-882.5 360.5,-918 394.5,-918 394.5,-882.5 360.5,-882.5"/>
<text text-anchor="start" x="365.5" y="-897.12" font-family="Linux libertine" font-size="10.00">(1, 7)</text>
</g>
<!-- 4 -->
<g id="node5" class="node">
<title>4</title>
<polygon fill="aliceblue" stroke="none" points="306.75,-809 130.5,-809 130.5,-763.5 306.75,-763.5 306.75,-809"/>
<polygon fill="none" stroke="black" points="130.5,-763.5 130.5,-809 176.5,-809 176.5,-763.5 130.5,-763.5"/>
<text text-anchor="start" x="135.5" y="-789.5" font-family="Linux libertine" font-size="10.00">permute</text>
<text text-anchor="start" x="137" y="-776.75" font-family="Linux libertine" font-size="10.00">depth:2</text>
<polygon fill="none" stroke="black" points="176.5,-786.25 176.5,-809 220.25,-809 220.25,-786.25 176.5,-786.25"/>
<text text-anchor="start" x="186" y="-794.5" font-family="Linux libertine" font-size="10.00">input:</text>
<polygon fill="none" stroke="black" points="220.25,-786.25 220.25,-809 306.75,-809 306.75,-786.25 220.25,-786.25"/>
<text text-anchor="start" x="225.25" y="-794.5" font-family="Linux libertine" font-size="10.00">(1, 50, 3, 64, 64) </text>
<polygon fill="none" stroke="black" points="176.5,-763.5 176.5,-786.25 220.25,-786.25 220.25,-763.5 176.5,-763.5"/>
<text text-anchor="start" x="181.5" y="-771.75" font-family="Linux libertine" font-size="10.00">output: </text>
<polygon fill="none" stroke="black" points="220.25,-763.5 220.25,-786.25 306.75,-786.25 306.75,-763.5 220.25,-763.5"/>
<text text-anchor="start" x="225.25" y="-771.75" font-family="Linux libertine" font-size="10.00">(1, 3, 50, 64, 64) </text>
</g>
<!-- 3&#45;&gt;4 -->
<g id="edge2" class="edge">
<title>3&#45;&gt;4</title>
<path fill="none" stroke="black" d="M218.62,-823.01C218.62,-821.98 218.62,-820.94 218.62,-819.89"/>
<polygon fill="black" stroke="black" points="222.13,-820.15 218.63,-810.15 215.13,-820.15 222.13,-820.15"/>
</g>
<!-- 5 -->
<g id="node6" class="node">
<title>5</title>
<polygon fill="#c1ffc1" stroke="none" points="307.88,-749.5 129.38,-749.5 129.38,-704 307.88,-704 307.88,-749.5"/>
<polygon fill="none" stroke="black" points="129.38,-704 129.38,-749.5 172.38,-749.5 172.38,-704 129.38,-704"/>
<text text-anchor="start" x="134.75" y="-730" font-family="Linux libertine" font-size="10.00">Conv3d</text>
<text text-anchor="start" x="134.38" y="-717.25" font-family="Linux libertine" font-size="10.00">depth:2</text>
<polygon fill="none" stroke="black" points="172.38,-726.75 172.38,-749.5 216.12,-749.5 216.12,-726.75 172.38,-726.75"/>
<text text-anchor="start" x="181.88" y="-735" font-family="Linux libertine" font-size="10.00">input:</text>
<polygon fill="none" stroke="black" points="216.12,-726.75 216.12,-749.5 307.88,-749.5 307.88,-726.75 216.12,-726.75"/>
<text text-anchor="start" x="223.75" y="-735" font-family="Linux libertine" font-size="10.00">(1, 3, 50, 64, 64) </text>
<polygon fill="none" stroke="black" points="172.38,-704 172.38,-726.75 216.12,-726.75 216.12,-704 172.38,-704"/>
<text text-anchor="start" x="177.38" y="-712.25" font-family="Linux libertine" font-size="10.00">output: </text>
<polygon fill="none" stroke="black" points="216.12,-704 216.12,-726.75 307.88,-726.75 307.88,-704 216.12,-704"/>
<text text-anchor="start" x="221.12" y="-712.25" font-family="Linux libertine" font-size="10.00">(1, 64, 50, 32, 32) </text>
</g>
<!-- 4&#45;&gt;5 -->
<g id="edge3" class="edge">
<title>4&#45;&gt;5</title>
<path fill="none" stroke="black" d="M218.62,-763.51C218.62,-762.48 218.62,-761.44 218.62,-760.39"/>
<polygon fill="black" stroke="black" points="222.13,-760.65 218.63,-750.65 215.13,-760.65 222.13,-760.65"/>
</g>
<!-- 6 -->
<g id="node7" class="node">
<title>6</title>
<polygon fill="#c1ffc1" stroke="none" points="307.88,-690 129.38,-690 129.38,-644.5 307.88,-644.5 307.88,-690"/>
<polygon fill="none" stroke="black" points="129.38,-644.5 129.38,-690 172.38,-690 172.38,-644.5 129.38,-644.5"/>
<text text-anchor="start" x="139.25" y="-670.5" font-family="Linux libertine" font-size="10.00">ReLU</text>
<text text-anchor="start" x="134.38" y="-657.75" font-family="Linux libertine" font-size="10.00">depth:2</text>
<polygon fill="none" stroke="black" points="172.38,-667.25 172.38,-690 216.12,-690 216.12,-667.25 172.38,-667.25"/>
<text text-anchor="start" x="181.88" y="-675.5" font-family="Linux libertine" font-size="10.00">input:</text>
<polygon fill="none" stroke="black" points="216.12,-667.25 216.12,-690 307.88,-690 307.88,-667.25 216.12,-667.25"/>
<text text-anchor="start" x="221.12" y="-675.5" font-family="Linux libertine" font-size="10.00">(1, 64, 50, 32, 32) </text>
<polygon fill="none" stroke="black" points="172.38,-644.5 172.38,-667.25 216.12,-667.25 216.12,-644.5 172.38,-644.5"/>
<text text-anchor="start" x="177.38" y="-652.75" font-family="Linux libertine" font-size="10.00">output: </text>
<polygon fill="none" stroke="black" points="216.12,-644.5 216.12,-667.25 307.88,-667.25 307.88,-644.5 216.12,-644.5"/>
<text text-anchor="start" x="221.12" y="-652.75" font-family="Linux libertine" font-size="10.00">(1, 64, 50, 32, 32) </text>
</g>
<!-- 5&#45;&gt;6 -->
<g id="edge4" class="edge">
<title>5&#45;&gt;6</title>
<path fill="none" stroke="black" d="M218.62,-704.01C218.62,-702.98 218.62,-701.94 218.62,-700.89"/>
<polygon fill="black" stroke="black" points="222.13,-701.15 218.63,-691.15 215.13,-701.15 222.13,-701.15"/>
</g>
<!-- 7 -->
<g id="node8" class="node">
<title>7</title>
<polygon fill="#c1ffc1" stroke="none" points="314.62,-630.5 122.62,-630.5 122.62,-585 314.62,-585 314.62,-630.5"/>
<polygon fill="none" stroke="black" points="122.62,-585 122.62,-630.5 179.12,-630.5 179.12,-585 122.62,-585"/>
<text text-anchor="start" x="127.62" y="-611" font-family="Linux libertine" font-size="10.00">MaxPool3d</text>
<text text-anchor="start" x="134.38" y="-598.25" font-family="Linux libertine" font-size="10.00">depth:2</text>
<polygon fill="none" stroke="black" points="179.12,-607.75 179.12,-630.5 222.88,-630.5 222.88,-607.75 179.12,-607.75"/>
<text text-anchor="start" x="188.62" y="-616" font-family="Linux libertine" font-size="10.00">input:</text>
<polygon fill="none" stroke="black" points="222.88,-607.75 222.88,-630.5 314.62,-630.5 314.62,-607.75 222.88,-607.75"/>
<text text-anchor="start" x="227.88" y="-616" font-family="Linux libertine" font-size="10.00">(1, 64, 50, 32, 32) </text>
<polygon fill="none" stroke="black" points="179.12,-585 179.12,-607.75 222.88,-607.75 222.88,-585 179.12,-585"/>
<text text-anchor="start" x="184.12" y="-593.25" font-family="Linux libertine" font-size="10.00">output: </text>
<polygon fill="none" stroke="black" points="222.88,-585 222.88,-607.75 314.62,-607.75 314.62,-585 222.88,-585"/>
<text text-anchor="start" x="227.88" y="-593.25" font-family="Linux libertine" font-size="10.00">(1, 64, 25, 16, 16) </text>
</g>
<!-- 6&#45;&gt;7 -->
<g id="edge5" class="edge">
<title>6&#45;&gt;7</title>
<path fill="none" stroke="black" d="M218.62,-644.51C218.62,-643.48 218.62,-642.44 218.62,-641.39"/>
<polygon fill="black" stroke="black" points="222.13,-641.65 218.63,-631.65 215.13,-641.65 222.13,-641.65"/>
</g>
<!-- 8 -->
<g id="node9" class="node">
<title>8</title>
<polygon fill="#c1ffc1" stroke="none" points="307.88,-571 129.38,-571 129.38,-525.5 307.88,-525.5 307.88,-571"/>
<polygon fill="none" stroke="black" points="129.38,-525.5 129.38,-571 172.38,-571 172.38,-525.5 129.38,-525.5"/>
<text text-anchor="start" x="134.75" y="-551.5" font-family="Linux libertine" font-size="10.00">Conv3d</text>
<text text-anchor="start" x="134.38" y="-538.75" font-family="Linux libertine" font-size="10.00">depth:2</text>
<polygon fill="none" stroke="black" points="172.38,-548.25 172.38,-571 216.12,-571 216.12,-548.25 172.38,-548.25"/>
<text text-anchor="start" x="181.88" y="-556.5" font-family="Linux libertine" font-size="10.00">input:</text>
<polygon fill="none" stroke="black" points="216.12,-548.25 216.12,-571 307.88,-571 307.88,-548.25 216.12,-548.25"/>
<text text-anchor="start" x="221.12" y="-556.5" font-family="Linux libertine" font-size="10.00">(1, 64, 25, 16, 16) </text>
<polygon fill="none" stroke="black" points="172.38,-525.5 172.38,-548.25 216.12,-548.25 216.12,-525.5 172.38,-525.5"/>
<text text-anchor="start" x="177.38" y="-533.75" font-family="Linux libertine" font-size="10.00">output: </text>
<polygon fill="none" stroke="black" points="216.12,-525.5 216.12,-548.25 307.88,-548.25 307.88,-525.5 216.12,-525.5"/>
<text text-anchor="start" x="223.75" y="-533.75" font-family="Linux libertine" font-size="10.00">(1, 128, 25, 8, 8) </text>
</g>
<!-- 7&#45;&gt;8 -->
<g id="edge6" class="edge">
<title>7&#45;&gt;8</title>
<path fill="none" stroke="black" d="M218.62,-585.01C218.62,-583.98 218.62,-582.94 218.62,-581.89"/>
<polygon fill="black" stroke="black" points="222.13,-582.15 218.63,-572.15 215.13,-582.15 222.13,-582.15"/>
</g>
<!-- 9 -->
<g id="node10" class="node">
<title>9</title>
<polygon fill="#c1ffc1" stroke="none" points="305.25,-511.5 132,-511.5 132,-466 305.25,-466 305.25,-511.5"/>
<polygon fill="none" stroke="black" points="132,-466 132,-511.5 175,-511.5 175,-466 132,-466"/>
<text text-anchor="start" x="141.88" y="-492" font-family="Linux libertine" font-size="10.00">ReLU</text>
<text text-anchor="start" x="137" y="-479.25" font-family="Linux libertine" font-size="10.00">depth:2</text>
<polygon fill="none" stroke="black" points="175,-488.75 175,-511.5 218.75,-511.5 218.75,-488.75 175,-488.75"/>
<text text-anchor="start" x="184.5" y="-497" font-family="Linux libertine" font-size="10.00">input:</text>
<polygon fill="none" stroke="black" points="218.75,-488.75 218.75,-511.5 305.25,-511.5 305.25,-488.75 218.75,-488.75"/>
<text text-anchor="start" x="223.75" y="-497" font-family="Linux libertine" font-size="10.00">(1, 128, 25, 8, 8) </text>
<polygon fill="none" stroke="black" points="175,-466 175,-488.75 218.75,-488.75 218.75,-466 175,-466"/>
<text text-anchor="start" x="180" y="-474.25" font-family="Linux libertine" font-size="10.00">output: </text>
<polygon fill="none" stroke="black" points="218.75,-466 218.75,-488.75 305.25,-488.75 305.25,-466 218.75,-466"/>
<text text-anchor="start" x="223.75" y="-474.25" font-family="Linux libertine" font-size="10.00">(1, 128, 25, 8, 8) </text>
</g>
<!-- 8&#45;&gt;9 -->
<g id="edge7" class="edge">
<title>8&#45;&gt;9</title>
<path fill="none" stroke="black" d="M218.62,-525.51C218.62,-524.48 218.62,-523.44 218.62,-522.39"/>
<polygon fill="black" stroke="black" points="222.13,-522.65 218.63,-512.65 215.13,-522.65 222.13,-522.65"/>
</g>
<!-- 10 -->
<g id="node11" class="node">
<title>10</title>
<polygon fill="#c1ffc1" stroke="none" points="312,-452 125.25,-452 125.25,-406.5 312,-406.5 312,-452"/>
<polygon fill="none" stroke="black" points="125.25,-406.5 125.25,-452 181.75,-452 181.75,-406.5 125.25,-406.5"/>
<text text-anchor="start" x="130.25" y="-432.5" font-family="Linux libertine" font-size="10.00">MaxPool3d</text>
<text text-anchor="start" x="137" y="-419.75" font-family="Linux libertine" font-size="10.00">depth:2</text>
<polygon fill="none" stroke="black" points="181.75,-429.25 181.75,-452 225.5,-452 225.5,-429.25 181.75,-429.25"/>
<text text-anchor="start" x="191.25" y="-437.5" font-family="Linux libertine" font-size="10.00">input:</text>
<polygon fill="none" stroke="black" points="225.5,-429.25 225.5,-452 312,-452 312,-429.25 225.5,-429.25"/>
<text text-anchor="start" x="230.5" y="-437.5" font-family="Linux libertine" font-size="10.00">(1, 128, 25, 8, 8) </text>
<polygon fill="none" stroke="black" points="181.75,-406.5 181.75,-429.25 225.5,-429.25 225.5,-406.5 181.75,-406.5"/>
<text text-anchor="start" x="186.75" y="-414.75" font-family="Linux libertine" font-size="10.00">output: </text>
<polygon fill="none" stroke="black" points="225.5,-406.5 225.5,-429.25 312,-429.25 312,-406.5 225.5,-406.5"/>
<text text-anchor="start" x="230.5" y="-414.75" font-family="Linux libertine" font-size="10.00">(1, 128, 12, 4, 4) </text>
</g>
<!-- 9&#45;&gt;10 -->
<g id="edge8" class="edge">
<title>9&#45;&gt;10</title>
<path fill="none" stroke="black" d="M218.62,-466.01C218.62,-464.98 218.62,-463.94 218.62,-462.89"/>
<polygon fill="black" stroke="black" points="222.13,-463.15 218.63,-453.15 215.13,-463.15 222.13,-463.15"/>
</g>
<!-- 11 -->
<g id="node12" class="node">
<title>11</title>
<polygon fill="aliceblue" stroke="none" points="305.25,-392.5 132,-392.5 132,-347 305.25,-347 305.25,-392.5"/>
<polygon fill="none" stroke="black" points="132,-347 132,-392.5 175,-392.5 175,-347 132,-347"/>
<text text-anchor="start" x="143.38" y="-373" font-family="Linux libertine" font-size="10.00">view</text>
<text text-anchor="start" x="137" y="-360.25" font-family="Linux libertine" font-size="10.00">depth:2</text>
<polygon fill="none" stroke="black" points="175,-369.75 175,-392.5 218.75,-392.5 218.75,-369.75 175,-369.75"/>
<text text-anchor="start" x="184.5" y="-378" font-family="Linux libertine" font-size="10.00">input:</text>
<polygon fill="none" stroke="black" points="218.75,-369.75 218.75,-392.5 305.25,-392.5 305.25,-369.75 218.75,-369.75"/>
<text text-anchor="start" x="223.75" y="-378" font-family="Linux libertine" font-size="10.00">(1, 128, 12, 4, 4) </text>
<polygon fill="none" stroke="black" points="175,-347 175,-369.75 218.75,-369.75 218.75,-347 175,-347"/>
<text text-anchor="start" x="180" y="-355.25" font-family="Linux libertine" font-size="10.00">output: </text>
<polygon fill="none" stroke="black" points="218.75,-347 218.75,-369.75 305.25,-369.75 305.25,-347 218.75,-347"/>
<text text-anchor="start" x="238" y="-355.25" font-family="Linux libertine" font-size="10.00">(1, 24576) </text>
</g>
<!-- 10&#45;&gt;11 -->
<g id="edge9" class="edge">
<title>10&#45;&gt;11</title>
<path fill="none" stroke="black" d="M218.62,-406.51C218.62,-405.48 218.62,-404.44 218.62,-403.39"/>
<polygon fill="black" stroke="black" points="222.13,-403.65 218.63,-393.65 215.13,-403.65 222.13,-403.65"/>
</g>
<!-- 12 -->
<g id="node13" class="node">
<title>12</title>
<polygon fill="#c1ffc1" stroke="none" points="291,-333 146.25,-333 146.25,-287.5 291,-287.5 291,-333"/>
<polygon fill="none" stroke="black" points="146.25,-287.5 146.25,-333 189.25,-333 189.25,-287.5 146.25,-287.5"/>
<text text-anchor="start" x="154.25" y="-313.5" font-family="Linux libertine" font-size="10.00">Linear</text>
<text text-anchor="start" x="151.25" y="-300.75" font-family="Linux libertine" font-size="10.00">depth:2</text>
<polygon fill="none" stroke="black" points="189.25,-310.25 189.25,-333 233,-333 233,-310.25 189.25,-310.25"/>
<text text-anchor="start" x="198.75" y="-318.5" font-family="Linux libertine" font-size="10.00">input:</text>
<polygon fill="none" stroke="black" points="233,-310.25 233,-333 291,-333 291,-310.25 233,-310.25"/>
<text text-anchor="start" x="238" y="-318.5" font-family="Linux libertine" font-size="10.00">(1, 24576) </text>
<polygon fill="none" stroke="black" points="189.25,-287.5 189.25,-310.25 233,-310.25 233,-287.5 189.25,-287.5"/>
<text text-anchor="start" x="194.25" y="-295.75" font-family="Linux libertine" font-size="10.00">output: </text>
<polygon fill="none" stroke="black" points="233,-287.5 233,-310.25 291,-310.25 291,-287.5 233,-287.5"/>
<text text-anchor="start" x="243.25" y="-295.75" font-family="Linux libertine" font-size="10.00">(1, 256) </text>
</g>
<!-- 11&#45;&gt;12 -->
<g id="edge10" class="edge">
<title>11&#45;&gt;12</title>
<path fill="none" stroke="black" d="M218.62,-347.01C218.62,-345.98 218.62,-344.94 218.62,-343.89"/>
<polygon fill="black" stroke="black" points="222.13,-344.15 218.63,-334.15 215.13,-344.15 222.13,-344.15"/>
</g>
<!-- 13 -->
<g id="node14" class="node">
<title>13</title>
<polygon fill="#c1ffc1" stroke="none" points="285.75,-273.5 151.5,-273.5 151.5,-228 285.75,-228 285.75,-273.5"/>
<polygon fill="none" stroke="black" points="151.5,-228 151.5,-273.5 194.5,-273.5 194.5,-228 151.5,-228"/>
<text text-anchor="start" x="161.38" y="-254" font-family="Linux libertine" font-size="10.00">ReLU</text>
<text text-anchor="start" x="156.5" y="-241.25" font-family="Linux libertine" font-size="10.00">depth:2</text>
<polygon fill="none" stroke="black" points="194.5,-250.75 194.5,-273.5 238.25,-273.5 238.25,-250.75 194.5,-250.75"/>
<text text-anchor="start" x="204" y="-259" font-family="Linux libertine" font-size="10.00">input:</text>
<polygon fill="none" stroke="black" points="238.25,-250.75 238.25,-273.5 285.75,-273.5 285.75,-250.75 238.25,-250.75"/>
<text text-anchor="start" x="243.25" y="-259" font-family="Linux libertine" font-size="10.00">(1, 256) </text>
<polygon fill="none" stroke="black" points="194.5,-228 194.5,-250.75 238.25,-250.75 238.25,-228 194.5,-228"/>
<text text-anchor="start" x="199.5" y="-236.25" font-family="Linux libertine" font-size="10.00">output: </text>
<polygon fill="none" stroke="black" points="238.25,-228 238.25,-250.75 285.75,-250.75 285.75,-228 238.25,-228"/>
<text text-anchor="start" x="243.25" y="-236.25" font-family="Linux libertine" font-size="10.00">(1, 256) </text>
</g>
<!-- 12&#45;&gt;13 -->
<g id="edge11" class="edge">
<title>12&#45;&gt;13</title>
<path fill="none" stroke="black" d="M218.62,-287.51C218.62,-286.48 218.62,-285.44 218.62,-284.39"/>
<polygon fill="black" stroke="black" points="222.13,-284.65 218.63,-274.65 215.13,-284.65 222.13,-284.65"/>
</g>
<!-- 14 -->
<g id="node15" class="node">
<title>14</title>
<polygon fill="#c1ffc1" stroke="none" points="285.75,-214 151.5,-214 151.5,-168.5 285.75,-168.5 285.75,-214"/>
<polygon fill="none" stroke="black" points="151.5,-168.5 151.5,-214 194.5,-214 194.5,-168.5 151.5,-168.5"/>
<text text-anchor="start" x="159.5" y="-194.5" font-family="Linux libertine" font-size="10.00">Linear</text>
<text text-anchor="start" x="156.5" y="-181.75" font-family="Linux libertine" font-size="10.00">depth:2</text>
<polygon fill="none" stroke="black" points="194.5,-191.25 194.5,-214 238.25,-214 238.25,-191.25 194.5,-191.25"/>
<text text-anchor="start" x="204" y="-199.5" font-family="Linux libertine" font-size="10.00">input:</text>
<polygon fill="none" stroke="black" points="238.25,-191.25 238.25,-214 285.75,-214 285.75,-191.25 238.25,-191.25"/>
<text text-anchor="start" x="243.25" y="-199.5" font-family="Linux libertine" font-size="10.00">(1, 256) </text>
<polygon fill="none" stroke="black" points="194.5,-168.5 194.5,-191.25 238.25,-191.25 238.25,-168.5 194.5,-168.5"/>
<text text-anchor="start" x="199.5" y="-176.75" font-family="Linux libertine" font-size="10.00">output: </text>
<polygon fill="none" stroke="black" points="238.25,-168.5 238.25,-191.25 285.75,-191.25 285.75,-168.5 238.25,-168.5"/>
<text text-anchor="start" x="245.88" y="-176.75" font-family="Linux libertine" font-size="10.00">(1, 64) </text>
</g>
<!-- 13&#45;&gt;14 -->
<g id="edge12" class="edge">
<title>13&#45;&gt;14</title>
<path fill="none" stroke="black" d="M218.62,-228.01C218.62,-226.98 218.62,-225.94 218.62,-224.89"/>
<polygon fill="black" stroke="black" points="222.13,-225.15 218.63,-215.15 215.13,-225.15 222.13,-225.15"/>
</g>
<!-- 15 -->
<g id="node16" class="node">
<title>15</title>
<polygon fill="#c1ffc1" stroke="none" points="283.12,-154.5 154.12,-154.5 154.12,-109 283.12,-109 283.12,-154.5"/>
<polygon fill="none" stroke="black" points="154.12,-109 154.12,-154.5 197.12,-154.5 197.12,-109 154.12,-109"/>
<text text-anchor="start" x="162.12" y="-135" font-family="Linux libertine" font-size="10.00">Linear</text>
<text text-anchor="start" x="159.12" y="-122.25" font-family="Linux libertine" font-size="10.00">depth:1</text>
<polygon fill="none" stroke="black" points="197.12,-131.75 197.12,-154.5 240.88,-154.5 240.88,-131.75 197.12,-131.75"/>
<text text-anchor="start" x="206.62" y="-140" font-family="Linux libertine" font-size="10.00">input:</text>
<polygon fill="none" stroke="black" points="240.88,-131.75 240.88,-154.5 283.12,-154.5 283.12,-131.75 240.88,-131.75"/>
<text text-anchor="start" x="245.88" y="-140" font-family="Linux libertine" font-size="10.00">(1, 64) </text>
<polygon fill="none" stroke="black" points="197.12,-109 197.12,-131.75 240.88,-131.75 240.88,-109 197.12,-109"/>
<text text-anchor="start" x="202.12" y="-117.25" font-family="Linux libertine" font-size="10.00">output: </text>
<polygon fill="none" stroke="black" points="240.88,-109 240.88,-131.75 283.12,-131.75 283.12,-109 240.88,-109"/>
<text text-anchor="start" x="248.5" y="-117.25" font-family="Linux libertine" font-size="10.00">(1, 1) </text>
</g>
<!-- 14&#45;&gt;15 -->
<g id="edge13" class="edge">
<title>14&#45;&gt;15</title>
<path fill="none" stroke="black" d="M218.62,-168.51C218.62,-167.48 218.62,-166.44 218.62,-165.39"/>
<polygon fill="black" stroke="black" points="222.13,-165.65 218.63,-155.65 215.13,-165.65 222.13,-165.65"/>
</g>
<!-- 16 -->
<g id="node17" class="node">
<title>16</title>
<polygon fill="#c1ffc1" stroke="none" points="280.88,-95 156.38,-95 156.38,-49.5 280.88,-49.5 280.88,-95"/>
<polygon fill="none" stroke="black" points="156.38,-49.5 156.38,-95 200.12,-95 200.12,-49.5 156.38,-49.5"/>
<text text-anchor="start" x="161.38" y="-75.5" font-family="Linux libertine" font-size="10.00">Sigmoid</text>
<text text-anchor="start" x="161.75" y="-62.75" font-family="Linux libertine" font-size="10.00">depth:1</text>
<polygon fill="none" stroke="black" points="200.12,-72.25 200.12,-95 243.88,-95 243.88,-72.25 200.12,-72.25"/>
<text text-anchor="start" x="209.62" y="-80.5" font-family="Linux libertine" font-size="10.00">input:</text>
<polygon fill="none" stroke="black" points="243.88,-72.25 243.88,-95 280.88,-95 280.88,-72.25 243.88,-72.25"/>
<text text-anchor="start" x="248.88" y="-80.5" font-family="Linux libertine" font-size="10.00">(1, 1) </text>
<polygon fill="none" stroke="black" points="200.12,-49.5 200.12,-72.25 243.88,-72.25 243.88,-49.5 200.12,-49.5"/>
<text text-anchor="start" x="205.12" y="-57.75" font-family="Linux libertine" font-size="10.00">output: </text>
<polygon fill="none" stroke="black" points="243.88,-49.5 243.88,-72.25 280.88,-72.25 280.88,-49.5 243.88,-49.5"/>
<text text-anchor="start" x="248.88" y="-57.75" font-family="Linux libertine" font-size="10.00">(1, 1) </text>
</g>
<!-- 15&#45;&gt;16 -->
<g id="edge14" class="edge">
<title>15&#45;&gt;16</title>
<path fill="none" stroke="black" d="M218.62,-109.01C218.62,-107.98 218.62,-106.94 218.62,-105.89"/>
<polygon fill="black" stroke="black" points="222.13,-106.15 218.63,-96.15 215.13,-106.15 222.13,-106.15"/>
</g>
<!-- 17 -->
<g id="node18" class="node">
<title>17</title>
<polygon fill="lightyellow" stroke="none" points="269.5,-35.5 167.75,-35.5 167.75,0 269.5,0 269.5,-35.5"/>
<polygon fill="none" stroke="black" points="167.75,0 167.75,-35.5 235.5,-35.5 235.5,0 167.75,0"/>
<text text-anchor="start" x="172.75" y="-21" font-family="Linux libertine" font-size="10.00">output&#45;tensor</text>
<text text-anchor="start" x="185.12" y="-8.25" font-family="Linux libertine" font-size="10.00">depth:0</text>
<polygon fill="none" stroke="black" points="235.5,0 235.5,-35.5 269.5,-35.5 269.5,0 235.5,0"/>
<text text-anchor="start" x="240.5" y="-14.62" font-family="Linux libertine" font-size="10.00">(1, 1)</text>
</g>
<!-- 16&#45;&gt;17 -->
<g id="edge15" class="edge">
<title>16&#45;&gt;17</title>
<path fill="none" stroke="black" d="M218.62,-49.59C218.62,-48.56 218.62,-47.51 218.62,-46.46"/>
<polygon fill="black" stroke="black" points="222.13,-46.9 218.63,-36.9 215.13,-46.9 222.13,-46.9"/>
</g>
</g>
</svg>
